<svg width="20" height="20" viewBox="0 0 20 20" fill="none" xmlns="http://www.w3.org/2000/svg">
<path d="M10.0007 6.66665C10.9173 6.66665 11.6673 5.91665 11.6673 4.99998C11.6673 4.08331 10.9173 3.33331 10.0007 3.33331C9.08398 3.33331 8.33398 4.08331 8.33398 4.99998C8.33398 5.91665 9.08398 6.66665 10.0007 6.66665ZM10.0007 8.33331C9.08398 8.33331 8.33398 9.08331 8.33398 9.99998C8.33398 10.9166 9.08398 11.6666 10.0007 11.6666C10.9173 11.6666 11.6673 10.9166 11.6673 9.99998C11.6673 9.08331 10.9173 8.33331 10.0007 8.33331ZM10.0007 13.3333C9.08398 13.3333 8.33398 14.0833 8.33398 15C8.33398 15.9166 9.08398 16.6666 10.0007 16.6666C10.9173 16.6666 11.6673 15.9166 11.6673 15C11.6673 14.0833 10.9173 13.3333 10.0007 13.3333Z" fill="#2D3748"/>
</svg>
