<svg width="90" height="90" viewBox="0 0 90 90" fill="none" xmlns="http://www.w3.org/2000/svg">
<g filter="url(#filter0_dd_971_6393)">
<rect x="5" y="1" width="80" height="80" rx="15" fill="url(#paint0_linear_971_6393)"/>
</g>
<path opacity="0.593634" d="M69.7621 31.4762V23.8578C69.7621 21.7527 67.9153 20.0476 65.6351 20.0476H24.3653C22.0851 20.0476 20.2383 21.7527 20.2383 23.8578V31.4762H69.7621Z" fill="white"/>
<path fill-rule="evenodd" clip-rule="evenodd" d="M20.2383 39.0952V57.7965C20.2383 60.0926 22.0851 61.9524 24.3653 61.9524H65.6351C67.9153 61.9524 69.7621 60.0926 69.7621 57.7965V39.0952H20.2383ZM42.9366 51.5627H28.4922V47.4069H42.9366V51.5627ZM53.2541 51.5627H61.508V47.4069H53.2541V51.5627Z" fill="white"/>
<defs>
<filter id="filter0_dd_971_6393" x="0" y="0" width="90" height="90" filterUnits="userSpaceOnUse" color-interpolation-filters="sRGB">
<feFlood flood-opacity="0" result="BackgroundImageFix"/>
<feColorMatrix in="SourceAlpha" type="matrix" values="0 0 0 0 0 0 0 0 0 0 0 0 0 0 0 0 0 0 127 0" result="hardAlpha"/>
<feMorphology radius="1" operator="erode" in="SourceAlpha" result="effect1_dropShadow_971_6393"/>
<feOffset dy="4"/>
<feGaussianBlur stdDeviation="3"/>
<feColorMatrix type="matrix" values="0 0 0 0 0 0 0 0 0 0 0 0 0 0 0 0 0 0 0.12 0"/>
<feBlend mode="normal" in2="BackgroundImageFix" result="effect1_dropShadow_971_6393"/>
<feColorMatrix in="SourceAlpha" type="matrix" values="0 0 0 0 0 0 0 0 0 0 0 0 0 0 0 0 0 0 127 0" result="hardAlpha"/>
<feMorphology radius="1" operator="erode" in="SourceAlpha" result="effect2_dropShadow_971_6393"/>
<feOffset dy="2"/>
<feGaussianBlur stdDeviation="2"/>
<feColorMatrix type="matrix" values="0 0 0 0 0 0 0 0 0 0 0 0 0 0 0 0 0 0 0.07 0"/>
<feBlend mode="normal" in2="effect1_dropShadow_971_6393" result="effect2_dropShadow_971_6393"/>
<feBlend mode="normal" in="SourceGraphic" in2="effect2_dropShadow_971_6393" result="shape"/>
</filter>
<linearGradient id="paint0_linear_971_6393" x1="5" y1="89.8889" x2="72.2414" y2="82.2995" gradientUnits="userSpaceOnUse">
<stop offset="0.145604" stop-color="#7092E0"/>
<stop offset="1" stop-color="#8BAEF3"/>
</linearGradient>
</defs>
</svg>
