<svg width="32" height="32" viewBox="0 0 32 32" fill="none" xmlns="http://www.w3.org/2000/svg">
<path d="M24.4375 17H22.5625V26.375H24.4375V17Z" fill="white"/>
<path d="M9.4375 24.5H7.5625V26.375H9.4375V24.5Z" fill="white"/>
<path d="M16.9375 24.5H15.0625V26.375H16.9375V24.5Z" fill="white"/>
<path d="M16.9375 17H15.0625V18.875H16.9375V17Z" fill="white"/>
<path d="M9.4375 17H7.5625V18.875H9.4375V17Z" fill="white"/>
<path d="M27.25 0H4.75C3.19913 0 1.9375 1.26163 1.9375 2.8125V29.1875C1.9375 30.7384 3.19913 32 4.75 32H27.25C28.8009 32 30.0625 30.7384 30.0625 29.1875V2.8125C30.0625 1.26163 28.8009 0 27.25 0ZM11.3125 27.3125C11.3125 27.8307 10.8932 28.25 10.375 28.25H6.625C6.10681 28.25 5.6875 27.8307 5.6875 27.3125V23.5625C5.6875 23.0443 6.10681 22.625 6.625 22.625H10.375C10.8932 22.625 11.3125 23.0443 11.3125 23.5625V27.3125ZM11.3125 19.8125C11.3125 20.3307 10.8932 20.75 10.375 20.75H6.625C6.10681 20.75 5.6875 20.3307 5.6875 19.8125V16.0625C5.6875 15.5443 6.10681 15.125 6.625 15.125H10.375C10.8932 15.125 11.3125 15.5443 11.3125 16.0625V19.8125ZM18.8125 27.3125C18.8125 27.8307 18.3932 28.25 17.875 28.25H14.125C13.6068 28.25 13.1875 27.8307 13.1875 27.3125V23.5625C13.1875 23.0443 13.6068 22.625 14.125 22.625H17.875C18.3932 22.625 18.8125 23.0443 18.8125 23.5625V27.3125ZM18.8125 19.8125C18.8125 20.3307 18.3932 20.75 17.875 20.75H14.125C13.6068 20.75 13.1875 20.3307 13.1875 19.8125V16.0625C13.1875 15.5443 13.6068 15.125 14.125 15.125H17.875C18.3932 15.125 18.8125 15.5443 18.8125 16.0625V19.8125ZM26.3125 27.3125C26.3125 27.8307 25.8932 28.25 25.375 28.25H21.625C21.1068 28.25 20.6875 27.8307 20.6875 27.3125V16.0625C20.6875 15.5443 21.1068 15.125 21.625 15.125H25.375C25.8932 15.125 26.3125 15.5443 26.3125 16.0625V27.3125ZM26.3125 12.3125C26.3125 12.8307 25.8932 13.25 25.375 13.25H6.625C6.10681 13.25 5.6875 12.8307 5.6875 12.3125V4.6875C5.6875 4.16931 6.10681 3.75 6.625 3.75H25.375C25.8932 3.75 26.3125 4.16931 26.3125 4.6875V12.3125Z" fill="white"/>
<path d="M24.4375 5.625H7.5625V11.375H24.4375V5.625Z" fill="white"/>
</svg>
