<svg width="30" height="30" viewBox="0 0 30 30" fill="none" xmlns="http://www.w3.org/2000/svg">
<path d="M16.9892 14.9995L22.5556 9.4331C22.8197 9.16939 22.9683 8.81153 22.9687 8.43825C22.969 8.06497 22.821 7.70685 22.5573 7.44267C22.2936 7.17849 21.9357 7.02989 21.5625 7.02956C21.1892 7.02923 20.8311 7.1772 20.5669 7.44092L15.0005 13.0073L9.43408 7.44092C9.1699 7.17674 8.81159 7.02832 8.43799 7.02832C8.06438 7.02832 7.70607 7.17674 7.44189 7.44092C7.17771 7.7051 7.0293 8.0634 7.0293 8.43701C7.0293 8.81062 7.17771 9.16892 7.44189 9.4331L13.0083 14.9995L7.44189 20.5659C7.17771 20.8301 7.0293 21.1884 7.0293 21.562C7.0293 21.9356 7.17771 22.2939 7.44189 22.5581C7.70607 22.8223 8.06438 22.9707 8.43799 22.9707C8.81159 22.9707 9.1699 22.8223 9.43408 22.5581L15.0005 16.9917L20.5669 22.5581C20.8311 22.8223 21.1894 22.9707 21.563 22.9707C21.9366 22.9707 22.2949 22.8223 22.5591 22.5581C22.8233 22.2939 22.9717 21.9356 22.9717 21.562C22.9717 21.1884 22.8233 20.8301 22.5591 20.5659L16.9892 14.9995Z" fill="black"/>
</svg>
