<svg width="20" height="20" viewBox="0 0 20 20" fill="none" xmlns="http://www.w3.org/2000/svg">
<path d="M3.33073 2.00004H2.83073V2.50004V13.6667H2.16406V2.50004C2.16406 1.85952 2.6902 1.33337 3.33073 1.33337H12.8307V2.00004H3.33073ZM15.8307 18H16.3307V17.5V5.83337V5.33337H15.8307H6.66406H6.16406V5.83337V17.5V18H6.66406H15.8307ZM6.66406 4.66671H15.8307C16.4713 4.66671 16.9974 5.19285 16.9974 5.83337V17.5C16.9974 18.1406 16.4713 18.6667 15.8307 18.6667H6.66406C6.02354 18.6667 5.4974 18.1406 5.4974 17.5V5.83337C5.4974 5.19285 6.02354 4.66671 6.66406 4.66671Z" stroke="white"/>
</svg>
