<svg width="12" height="21" viewBox="0 0 12 21" fill="none" xmlns="http://www.w3.org/2000/svg">
<path d="M11.9414 13.6445C11.9414 14.8867 11.4921 15.8867 10.5937 16.6445C9.69527 17.3945 8.43746 17.8438 6.82027 17.9922V20.3945H5.21481V18.0391C3.30856 18 1.63668 17.6641 0.199181 17.0312V13.9375C0.878869 14.2734 1.69527 14.5703 2.6484 14.8281C3.60934 15.0859 4.46481 15.2383 5.21481 15.2852V11.6523L4.42965 11.3477C2.88277 10.7383 1.78512 10.0781 1.13668 9.36719C0.496056 8.64844 0.175744 7.76172 0.175744 6.70703C0.175744 5.57422 0.61715 4.64453 1.49996 3.91797C2.39059 3.18359 3.62887 2.73828 5.21481 2.58203V0.789062H6.82027V2.53516C8.60934 2.61328 10.2265 2.97266 11.6718 3.61328L10.5703 6.35547C9.35152 5.85547 8.10152 5.55078 6.82027 5.44141V8.89844C8.34371 9.48438 9.42574 9.99219 10.0664 10.4219C10.7148 10.8516 11.1875 11.3242 11.4843 11.8398C11.789 12.3555 11.9414 12.957 11.9414 13.6445ZM8.41402 13.8203C8.41402 13.4922 8.28121 13.2148 8.01559 12.9883C7.74996 12.7617 7.35152 12.5273 6.82027 12.2852V15.2031C7.88277 15.0234 8.41402 14.5625 8.41402 13.8203ZM3.70309 6.70703C3.70309 7.05078 3.82027 7.33594 4.05465 7.5625C4.29684 7.78125 4.68356 8.00781 5.21481 8.24219V5.48828C4.20699 5.63672 3.70309 6.04297 3.70309 6.70703Z" fill="#A0AEC0"/>
</svg>
