<svg width="16" height="16" viewBox="0 0 16 16" fill="none" xmlns="http://www.w3.org/2000/svg">
<path d="M9.59846 14.4C9.59846 13.5163 8.88211 12.8 7.99845 12.8C7.11479 12.8 6.39844 13.5163 6.39844 14.4C6.39844 15.2837 7.11479 16 7.99845 16C8.88211 16 9.59846 15.2837 9.59846 14.4Z" fill="#2D3748"/>
<path d="M9.59846 7.99996C9.59846 7.1163 8.88211 6.39995 7.99845 6.39995C7.11479 6.39995 6.39844 7.1163 6.39844 7.99996C6.39844 8.88363 7.11479 9.59998 7.99845 9.59998C8.88211 9.59998 9.59846 8.88363 9.59846 7.99996Z" fill="#2D3748"/>
<path d="M9.59846 1.60006C9.59846 0.7164 8.88211 5.05447e-05 7.99845 5.05447e-05C7.11479 5.05447e-05 6.39844 0.7164 6.39844 1.60006C6.39844 2.48372 7.11479 3.20007 7.99845 3.20007C8.88211 3.20007 9.59846 2.48372 9.59846 1.60006Z" fill="#2D3748"/>
</svg>
