<svg width="24" height="24" viewBox="0 0 24 24" fill="none" xmlns="http://www.w3.org/2000/svg">
<path d="M15.75 8.25H17.625C18.1223 8.25 18.5992 8.44754 18.9508 8.79917C19.3024 9.15081 19.5 9.62772 19.5 10.125V19.875C19.5 20.3723 19.3024 20.8492 18.9508 21.2008C18.5992 21.5524 18.1223 21.75 17.625 21.75H6.375C5.87772 21.75 5.40081 21.5524 5.04917 21.2008C4.69754 20.8492 4.5 20.3723 4.5 19.875V10.125C4.5 9.62772 4.69754 9.15081 5.04917 8.79917C5.40081 8.44754 5.87772 8.25 6.375 8.25H8.25" stroke="#2D3748" stroke-width="1.5" stroke-linecap="round" stroke-linejoin="round"/>
<path d="M8.25 12.749L12 16.499L15.75 12.749" stroke="#2D3748" stroke-width="1.5" stroke-linecap="round" stroke-linejoin="round"/>
<path d="M12 2.24902V15.749" stroke="#2D3748" stroke-width="1.5" stroke-linecap="round" stroke-linejoin="round"/>
</svg>
