<svg width="14" height="19" viewBox="0 0 14 19" fill="none" xmlns="http://www.w3.org/2000/svg">
<path d="M9.55465 3.64453C8.60152 3.64453 7.81637 3.92188 7.19918 4.47656C6.58199 5.02344 6.18356 5.82031 6.00387 6.86719H10.7265V8.92969H5.82809L5.80465 9.33984V9.89062L5.82809 10.2773H9.98824V12.3633H6.02731C6.42574 14.2617 7.67965 15.2109 9.78902 15.2109C10.9062 15.2109 11.9804 14.9883 13.0117 14.543V17.543C12.1054 18.0039 10.9609 18.2344 9.57809 18.2344C7.66402 18.2344 6.08981 17.7148 4.85543 16.6758C3.62106 15.6367 2.84371 14.1992 2.5234 12.3633H0.917931V10.2773H2.30074C2.26949 10.0977 2.25387 9.85547 2.25387 9.55078L2.27731 8.92969H0.917931V6.86719H2.47652C2.76559 4.97656 3.54293 3.48438 4.80856 2.39062C6.07418 1.28906 7.65621 0.738281 9.55465 0.738281C11.0234 0.738281 12.3984 1.05859 13.6796 1.69922L12.5312 4.41797C11.9921 4.17578 11.4882 3.98828 11.0195 3.85547C10.5507 3.71484 10.0625 3.64453 9.55465 3.64453Z" fill="#A0AEC0"/>
</svg>
