<svg width="24" height="24" viewBox="0 0 24 24" fill="none" xmlns="http://www.w3.org/2000/svg">
<path d="M3 6.74936H13.6289C13.7841 7.18788 14.0714 7.56752 14.4512 7.83603C14.8311 8.10454 15.2848 8.24872 15.75 8.24872C16.2152 8.24872 16.6689 8.10454 17.0488 7.83603C17.4286 7.56752 17.7159 7.18788 17.8711 6.74936H21C21.1989 6.74936 21.3897 6.67034 21.5303 6.52969C21.671 6.38904 21.75 6.19827 21.75 5.99936C21.75 5.80045 21.671 5.60968 21.5303 5.46903C21.3897 5.32838 21.1989 5.24936 21 5.24936H17.8711C17.7159 4.81084 17.4286 4.4312 17.0488 4.16269C16.6689 3.89418 16.2152 3.75 15.75 3.75C15.2848 3.75 14.8311 3.89418 14.4512 4.16269C14.0714 4.4312 13.7841 4.81084 13.6289 5.24936H3C2.80109 5.24936 2.61032 5.32838 2.46967 5.46903C2.32902 5.60968 2.25 5.80045 2.25 5.99936C2.25 6.19827 2.32902 6.38904 2.46967 6.52969C2.61032 6.67034 2.80109 6.74936 3 6.74936Z" fill="#2D3748"/>
<path d="M21 17.2494H17.8711C17.7159 16.8108 17.4286 16.4312 17.0488 16.1627C16.6689 15.8942 16.2152 15.75 15.75 15.75C15.2848 15.75 14.8311 15.8942 14.4512 16.1627C14.0714 16.4312 13.7841 16.8108 13.6289 17.2494H3C2.80109 17.2494 2.61032 17.3284 2.46967 17.469C2.32902 17.6097 2.25 17.8004 2.25 17.9994C2.25 18.1983 2.32902 18.389 2.46967 18.5297C2.61032 18.6703 2.80109 18.7494 3 18.7494H13.6289C13.7841 19.1879 14.0714 19.5675 14.4512 19.836C14.8311 20.1045 15.2848 20.2487 15.75 20.2487C16.2152 20.2487 16.6689 20.1045 17.0488 19.836C17.4286 19.5675 17.7159 19.1879 17.8711 18.7494H21C21.1989 18.7494 21.3897 18.6703 21.5303 18.5297C21.671 18.389 21.75 18.1983 21.75 17.9994C21.75 17.8004 21.671 17.6097 21.5303 17.469C21.3897 17.3284 21.1989 17.2494 21 17.2494Z" fill="#2D3748"/>
<path d="M21 11.2494H10.3711C10.2159 10.8108 9.92861 10.4312 9.54876 10.1627C9.16891 9.89418 8.71517 9.75 8.25 9.75C7.78483 9.75 7.33109 9.89418 6.95124 10.1627C6.57139 10.4312 6.28409 10.8108 6.1289 11.2494H3C2.80109 11.2494 2.61032 11.3284 2.46967 11.469C2.32902 11.6097 2.25 11.8004 2.25 11.9994C2.25 12.1983 2.32902 12.389 2.46967 12.5297C2.61032 12.6703 2.80109 12.7494 3 12.7494H6.1289C6.28409 13.1879 6.57139 13.5675 6.95124 13.836C7.33109 14.1045 7.78483 14.2487 8.25 14.2487C8.71517 14.2487 9.16891 14.1045 9.54876 13.836C9.92861 13.5675 10.2159 13.1879 10.3711 12.7494H21C21.1989 12.7494 21.3897 12.6703 21.5303 12.5297C21.671 12.389 21.75 12.1983 21.75 11.9994C21.75 11.8004 21.671 11.6097 21.5303 11.469C21.3897 11.3284 21.1989 11.2494 21 11.2494Z" fill="#2D3748"/>
</svg>
