<svg width="20" height="20" viewBox="0 0 20 20" fill="none" xmlns="http://www.w3.org/2000/svg">
<path d="M10.2172 3.95668C10.159 3.90105 10.0817 3.87 10.0012 3.87C9.92069 3.87 9.84331 3.90105 9.78515 3.95668L2.59375 10.8266C2.56321 10.8558 2.53891 10.8909 2.52233 10.9298C2.50574 10.9687 2.49722 11.0105 2.49727 11.0528L2.49609 17.5004C2.49609 17.8319 2.62779 18.1499 2.86221 18.3843C3.09663 18.6187 3.41457 18.7504 3.74609 18.7504H7.5C7.66576 18.7504 7.82473 18.6846 7.94194 18.5674C8.05915 18.4502 8.125 18.2912 8.125 18.1254V12.8129C8.125 12.73 8.15792 12.6506 8.21653 12.592C8.27513 12.5333 8.35462 12.5004 8.4375 12.5004H11.5625C11.6454 12.5004 11.7249 12.5333 11.7835 12.592C11.8421 12.6506 11.875 12.73 11.875 12.8129V18.1254C11.875 18.2912 11.9408 18.4502 12.0581 18.5674C12.1753 18.6846 12.3342 18.7504 12.5 18.7504H16.2523C16.5839 18.7504 16.9018 18.6187 17.1362 18.3843C17.3706 18.1499 17.5023 17.8319 17.5023 17.5004V11.0528C17.5024 11.0105 17.4939 10.9687 17.4773 10.9298C17.4607 10.8909 17.4364 10.8558 17.4059 10.8266L10.2172 3.95668Z" fill="#A0AEC0"/>
<path d="M19.1762 9.53833L16.2543 6.74302V2.50122C16.2543 2.33546 16.1885 2.17649 16.0712 2.05928C15.954 1.94207 15.7951 1.87622 15.6293 1.87622H13.7543C13.5885 1.87622 13.4296 1.94207 13.3124 2.05928C13.1952 2.17649 13.1293 2.33546 13.1293 2.50122V3.75122L10.8668 1.58794C10.6551 1.37388 10.3402 1.25122 10 1.25122C9.66095 1.25122 9.34689 1.37388 9.13517 1.58833L0.826577 9.53755C0.583609 9.77192 0.55314 10.1575 0.774233 10.4114C0.829753 10.4755 0.897734 10.5276 0.974038 10.5646C1.05034 10.6016 1.13337 10.6226 1.21808 10.6265C1.30278 10.6304 1.38739 10.617 1.46675 10.5871C1.54611 10.5572 1.61856 10.5115 1.6797 10.4528L9.78517 2.70747C9.84332 2.65184 9.9207 2.62079 10.0012 2.62079C10.0817 2.62079 10.159 2.65184 10.2172 2.70747L18.3234 10.4528C18.4429 10.5673 18.6028 10.6298 18.7682 10.6266C18.9336 10.6233 19.091 10.5547 19.2059 10.4356C19.4457 10.1872 19.4258 9.777 19.1762 9.53833Z" fill="#A0AEC0"/>
</svg>
