<svg width="11" height="15" viewBox="0 0 11 15" fill="none" xmlns="http://www.w3.org/2000/svg">
<path d="M0.34375 1.28918V13.7111C0.34375 13.8043 0.380789 13.8937 0.44672 13.9596C0.512651 14.0256 0.602072 14.0626 0.695312 14.0626H10.3047C10.3979 14.0626 10.4873 14.0256 10.5533 13.9596C10.6192 13.8937 10.6562 13.8043 10.6562 13.7111V1.28918C10.6562 1.19594 10.6192 1.10652 10.5533 1.04059C10.4873 0.974662 10.3979 0.937622 10.3047 0.937622H0.695312C0.602072 0.937622 0.512651 0.974662 0.44672 1.04059C0.380789 1.10652 0.34375 1.19594 0.34375 1.28918V1.28918ZM5.96875 8.90637H2.6875V7.96887H5.96875V8.90637ZM8.3125 6.56262H2.6875V5.62512H8.3125V6.56262ZM8.3125 4.21887H2.6875V3.28137H8.3125V4.21887Z" fill="url(#paint0_linear_1414_2166)"/>
<defs>
<linearGradient id="paint0_linear_1414_2166" x1="0.34375" y1="15.521" x2="9.05351" y2="14.7486" gradientUnits="userSpaceOnUse">
<stop offset="0.145604" stop-color="#7092E0"/>
<stop offset="1" stop-color="#8BAEF3"/>
</linearGradient>
</defs>
</svg>
