<svg width="32" height="32" viewBox="0 0 32 32" fill="none" xmlns="http://www.w3.org/2000/svg">
<path d="M19.3327 18.9333L23.1993 21.2L22.1327 22.9333L17.3327 20V13.3333H19.3327V18.9333ZM29.3327 18.6666C29.3327 24.5466 24.546 29.3333 18.666 29.3333C15.9727 29.3333 13.5193 28.32 11.6393 26.6666H5.33268C3.79935 26.6666 2.66602 25.5333 2.66602 24V12C2.66602 10.5066 3.85268 9.38663 5.33268 9.33329V8.66663C5.33268 5.34663 8.01268 2.66663 11.3327 2.66663C14.4527 2.66663 16.986 5.05329 17.2793 8.10663C17.7327 8.03996 18.1993 7.99996 18.666 7.99996C24.546 7.99996 29.3327 12.7866 29.3327 18.6666ZM7.99935 9.33329H14.666V8.34663C14.506 6.65329 13.066 5.33329 11.3327 5.33329C9.49268 5.33329 7.99935 6.82663 7.99935 8.66663V9.33329ZM26.666 18.6666C26.666 14.2533 23.0793 10.6666 18.666 10.6666C14.2527 10.6666 10.666 14.2533 10.666 18.6666C10.666 23.08 14.2527 26.6666 18.666 26.6666C23.0793 26.6666 26.666 23.08 26.666 18.6666Z" fill="white"/>
</svg>
