<svg width="24" height="24" viewBox="0 0 24 24" fill="none" xmlns="http://www.w3.org/2000/svg">
<path fill-rule="evenodd" clip-rule="evenodd" d="M0.488063 0.0728161C-0.0193609 0.29576 -0.00993636 0.223586 0.00633384 3.76102L0.0200721 6.74074L0.155673 6.91836C0.539874 7.42185 1.3132 7.35347 1.58515 6.79196C1.68132 6.59334 1.6846 6.52599 1.6846 4.7386V2.89061L4.41584 5.61594C5.91804 7.11487 7.21459 8.37492 7.29712 8.41607C7.97296 8.75294 8.74559 7.98068 8.40855 7.30515C8.36739 7.22266 7.10675 5.92671 5.60713 4.42521L2.88053 1.69524H4.72938C6.5176 1.69524 6.58498 1.69196 6.78369 1.59583C7.34546 1.32401 7.41387 0.551041 6.91015 0.167018L6.73244 0.03148L3.68101 0.0210756C1.23054 0.0126865 0.601767 0.0229034 0.488063 0.0728161ZM17.228 0.0817676C16.5915 0.412645 16.5847 1.29022 17.2163 1.59583C17.415 1.69196 17.4824 1.69524 19.2706 1.69524H21.1195L18.3929 4.42521C16.8932 5.92667 15.6326 7.22266 15.5914 7.30515C15.2616 7.96615 16.0351 8.7499 16.6928 8.42122C16.7809 8.37726 18.082 7.11487 19.5842 5.61594L22.3154 2.89061V4.7386C22.3154 6.52599 22.3187 6.59334 22.4148 6.79196C22.6868 7.35347 23.4601 7.42185 23.8443 6.91836L23.9799 6.74074L23.9937 3.76102C24.01 0.215665 24.0196 0.287699 23.5016 0.0713633C23.2586 -0.0301025 17.4246 -0.020448 17.228 0.0817676ZM7.52466 15.4034C7.37936 15.4551 6.7323 16.0762 4.5121 18.2952L1.6846 21.1211V19.2731C1.6846 17.4857 1.68132 17.4184 1.58515 17.2197C1.3132 16.6582 0.539874 16.5899 0.155673 17.0933L0.0200721 17.271L0.00633384 20.2507C-0.00895171 23.5712 -0.0150472 23.4699 0.215408 23.7249C0.476528 24.0138 0.425045 24.0098 3.7279 23.9943L6.73244 23.9802L6.91015 23.8447C7.41387 23.4607 7.34546 22.6877 6.78369 22.4159C6.58498 22.3197 6.5176 22.3165 4.72975 22.3165H2.88128L5.72571 19.4693C8.27699 16.9156 8.57557 16.6012 8.62335 16.4191C8.79688 15.7579 8.16623 15.175 7.52466 15.4034ZM15.9224 15.4017C15.4948 15.5542 15.263 15.9861 15.3767 16.4191C15.4244 16.6012 15.723 16.9156 18.2743 19.4693L21.1187 22.3165H19.2702C17.4824 22.3165 17.415 22.3197 17.2163 22.4159C16.6545 22.6877 16.5861 23.4607 17.0899 23.8447L17.2676 23.9802L20.2721 23.9943C23.575 24.0098 23.5235 24.0138 23.7846 23.7249C24.015 23.4699 24.009 23.5712 23.9937 20.2507L23.9799 17.271L23.8443 17.0933C23.4601 16.5899 22.6868 16.6582 22.4148 17.2197C22.3187 17.4184 22.3154 17.4857 22.3154 19.2727V21.1203L19.4669 18.2776C16.2744 15.0913 16.4328 15.2199 15.9224 15.4017Z" fill="#A0AEC0"/>
</svg>
