<svg width="15" height="15" viewBox="0 0 15 15" fill="none" xmlns="http://www.w3.org/2000/svg">
<path d="M9.375 0.937378H5.625C5.37636 0.937378 5.1379 1.03615 4.96209 1.21197C4.78627 1.38778 4.6875 1.62624 4.6875 1.87488V13.9452C4.6875 13.9763 4.69985 14.0061 4.72182 14.0281C4.7438 14.05 4.77361 14.0624 4.80469 14.0624H10.1953C10.2264 14.0624 10.2562 14.05 10.2782 14.0281C10.3002 14.0061 10.3125 13.9763 10.3125 13.9452V1.87488C10.3125 1.62624 10.2137 1.38778 10.0379 1.21197C9.8621 1.03615 9.62364 0.937378 9.375 0.937378Z" fill="url(#paint0_linear_2504_18876)"/>
<path d="M13.5937 5.62451H11.4844C11.4222 5.62451 11.3626 5.6492 11.3186 5.69316C11.2747 5.73711 11.25 5.79673 11.25 5.85889V13.8276C11.25 13.8898 11.2747 13.9494 11.3186 13.9934C11.3626 14.0373 11.4222 14.062 11.4844 14.062H13.8281C14.0146 14.062 14.1934 13.9879 14.3253 13.8561C14.4572 13.7242 14.5312 13.5454 14.5312 13.3589V6.56201C14.5312 6.31337 14.4325 6.07491 14.2567 5.8991C14.0808 5.72328 13.8424 5.62451 13.5937 5.62451Z" fill="url(#paint1_linear_2504_18876)"/>
<path d="M1.40625 3.75061C1.15761 3.75061 0.919153 3.84938 0.743337 4.0252C0.567522 4.20101 0.46875 4.43947 0.46875 4.68811V13.36C0.46875 13.5465 0.542829 13.7253 0.67469 13.8572C0.806552 13.989 0.985394 14.0631 1.17187 14.0631H3.51562C3.57778 14.0631 3.6374 14.0384 3.68135 13.9945C3.72531 13.9505 3.75 13.8909 3.75 13.8287V3.98499C3.75 3.92283 3.72531 3.86321 3.68135 3.81926C3.6374 3.7753 3.57778 3.75061 3.51562 3.75061H1.40625Z" fill="url(#paint2_linear_2504_18876)"/>
<defs>
<linearGradient id="paint0_linear_2504_18876" x1="4.6875" y1="15.5207" x2="9.46446" y2="15.2896" gradientUnits="userSpaceOnUse">
<stop offset="0.145604" stop-color="#7092E0"/>
<stop offset="1" stop-color="#8BAEF3"/>
</linearGradient>
<linearGradient id="paint1_linear_2504_18876" x1="11.25" y1="14.9995" x2="14.0377" y2="14.8771" gradientUnits="userSpaceOnUse">
<stop offset="0.145604" stop-color="#7092E0"/>
<stop offset="1" stop-color="#8BAEF3"/>
</linearGradient>
<linearGradient id="paint2_linear_2504_18876" x1="0.46875" y1="15.2089" x2="3.25824" y2="15.1088" gradientUnits="userSpaceOnUse">
<stop offset="0.145604" stop-color="#7092E0"/>
<stop offset="1" stop-color="#8BAEF3"/>
</linearGradient>
</defs>
</svg>
