<svg width="16" height="15" viewBox="0 0 16 15" fill="none" xmlns="http://www.w3.org/2000/svg">
<path d="M1.4375 11.0151C1.4375 11.4503 1.61035 11.8676 1.91803 12.1752C2.2257 12.4829 2.643 12.6558 3.07812 12.6558H12.9219C13.357 12.6558 13.7743 12.4829 14.082 12.1752C14.3896 11.8676 14.5625 11.4503 14.5625 11.0151V6.50342H1.4375V11.0151ZM3.37109 8.78857C3.37109 8.55547 3.46369 8.33192 3.62852 8.16709C3.79335 8.00227 4.0169 7.90967 4.25 7.90967H5.65625C5.88935 7.90967 6.1129 8.00227 6.27773 8.16709C6.44256 8.33192 6.53515 8.55547 6.53515 8.78857V9.37451C6.53515 9.60761 6.44256 9.83116 6.27773 9.99599C6.1129 10.1608 5.88935 10.2534 5.65625 10.2534H4.25C4.0169 10.2534 3.79335 10.1608 3.62852 9.99599C3.46369 9.83116 3.37109 9.60761 3.37109 9.37451V8.78857Z" fill="url(#paint0_linear_1461_23538)"/>
<path d="M12.9219 2.34277H3.07812C2.643 2.34277 2.2257 2.51562 1.91803 2.8233C1.61035 3.13098 1.4375 3.54828 1.4375 3.9834V4.74512H14.5625V3.9834C14.5625 3.54828 14.3896 3.13098 14.082 2.8233C13.7743 2.51562 13.357 2.34277 12.9219 2.34277Z" fill="url(#paint1_linear_1461_23538)"/>
<defs>
<linearGradient id="paint0_linear_1461_23538" x1="1.4375" y1="13.3394" x2="11.9976" y2="10.7967" gradientUnits="userSpaceOnUse">
<stop offset="0.145604" stop-color="#7092E0"/>
<stop offset="1" stop-color="#8BAEF3"/>
</linearGradient>
<linearGradient id="paint1_linear_1461_23538" x1="1.4375" y1="5.01204" x2="9.53194" y2="0.020671" gradientUnits="userSpaceOnUse">
<stop offset="0.145604" stop-color="#7092E0"/>
<stop offset="1" stop-color="#8BAEF3"/>
</linearGradient>
</defs>
</svg>
