<svg width="15" height="15" viewBox="0 0 15 15" fill="none" xmlns="http://www.w3.org/2000/svg">
<path d="M9.02168 7.26553L6.32812 4.52686V7.08975C6.32812 7.13637 6.34664 7.18108 6.37961 7.21404C6.41258 7.24701 6.45729 7.26553 6.50391 7.26553H9.02168Z" fill="url(#paint0_linear_2779_20678)"/>
<path d="M5.39062 7.85156V4.21875H1.75781C1.66457 4.21875 1.57515 4.25579 1.50922 4.32172C1.44329 4.38765 1.40625 4.47707 1.40625 4.57031V14.1797C1.40625 14.2729 1.44329 14.3623 1.50922 14.4283C1.57515 14.4942 1.66457 14.5312 1.75781 14.5312H9.02344C9.11668 14.5312 9.2061 14.4942 9.27203 14.4283C9.33796 14.3623 9.375 14.2729 9.375 14.1797V8.20312H5.74219C5.64895 8.20312 5.55953 8.16609 5.49359 8.10015C5.42766 8.03422 5.39062 7.9448 5.39062 7.85156Z" fill="url(#paint1_linear_2779_20678)"/>
<path d="M10.7227 3.51516H13.2404L10.5469 0.776489V3.33938C10.5469 3.386 10.5654 3.43071 10.5984 3.46368C10.6313 3.49664 10.676 3.51516 10.7227 3.51516Z" fill="url(#paint2_linear_2779_20678)"/>
<path d="M9.96094 4.45288C9.8677 4.45288 9.77827 4.41584 9.71234 4.34991C9.64641 4.28398 9.60937 4.19456 9.60937 4.10132V0.468506H5.03906C4.94582 0.468506 4.8564 0.505545 4.79047 0.571476C4.72454 0.637407 4.6875 0.726828 4.6875 0.820068V3.28101H5.92148C6.07899 3.28164 6.23482 3.31338 6.38002 3.37442C6.52522 3.43545 6.65693 3.52458 6.76758 3.63667L9.96562 6.88862C10.1887 7.115 10.3133 7.42039 10.3122 7.73823V11.7185H13.2422C13.3354 11.7185 13.4248 11.6815 13.4908 11.6155C13.5567 11.5496 13.5937 11.4602 13.5937 11.3669V4.45288H9.96094Z" fill="url(#paint3_linear_2779_20678)"/>
<defs>
<linearGradient id="paint0_linear_2779_20678" x1="6.32812" y1="7.56982" x2="8.59304" y2="7.3184" gradientUnits="userSpaceOnUse">
<stop offset="0.145604" stop-color="#7092E0"/>
<stop offset="1" stop-color="#8BAEF3"/>
</linearGradient>
<linearGradient id="paint1_linear_2779_20678" x1="1.40625" y1="15.6771" x2="8.13824" y2="15.0899" gradientUnits="userSpaceOnUse">
<stop offset="0.145604" stop-color="#7092E0"/>
<stop offset="1" stop-color="#8BAEF3"/>
</linearGradient>
<linearGradient id="paint2_linear_2779_20678" x1="10.5469" y1="3.81946" x2="12.8118" y2="3.56803" gradientUnits="userSpaceOnUse">
<stop offset="0.145604" stop-color="#7092E0"/>
<stop offset="1" stop-color="#8BAEF3"/>
</linearGradient>
<linearGradient id="paint3_linear_2779_20678" x1="4.6875" y1="12.9685" x2="12.2087" y2="12.2965" gradientUnits="userSpaceOnUse">
<stop offset="0.145604" stop-color="#7092E0"/>
<stop offset="1" stop-color="#8BAEF3"/>
</linearGradient>
</defs>
</svg>
