<svg width="15" height="16" viewBox="0 0 15 16" fill="none" xmlns="http://www.w3.org/2000/svg">
<g clip-path="url(#clip0_744_7288)">
<path d="M7.66265 3.46736C7.61903 3.42563 7.56099 3.40234 7.50063 3.40234C7.44027 3.40234 7.38224 3.42563 7.33862 3.46736L1.94507 8.61979C1.92216 8.64171 1.90394 8.66804 1.8915 8.69719C1.87906 8.72635 1.87267 8.75773 1.87271 8.78942L1.87183 13.6252C1.87183 13.8738 1.9706 14.1123 2.14641 14.2881C2.32223 14.4639 2.56069 14.5627 2.80933 14.5627H5.62476C5.74908 14.5627 5.8683 14.5133 5.95621 14.4254C6.04412 14.3375 6.0935 14.2182 6.0935 14.0939V10.1095C6.0935 10.0474 6.1182 9.98777 6.16215 9.94381C6.20611 9.89986 6.26572 9.87517 6.32788 9.87517H8.67163C8.73379 9.87517 8.7934 9.89986 8.83736 9.94381C8.88131 9.98777 8.906 10.0474 8.906 10.1095V14.0939C8.906 14.2182 8.95539 14.3375 9.0433 14.4254C9.13121 14.5133 9.25043 14.5627 9.37475 14.5627H12.189C12.4377 14.5627 12.6761 14.4639 12.8519 14.2881C13.0277 14.1123 13.1265 13.8738 13.1265 13.6252V8.78942C13.1265 8.75773 13.1202 8.72635 13.1077 8.69719C13.0953 8.66804 13.0771 8.64171 13.0541 8.61979L7.66265 3.46736Z" fill="url(#paint0_linear_744_7288)"/>
<path d="M14.3823 7.65381L12.1909 5.55732V2.37598C12.1909 2.25166 12.1415 2.13243 12.0536 2.04452C11.9656 1.95661 11.8464 1.90723 11.7221 1.90723H10.3159C10.1915 1.90723 10.0723 1.95661 9.9844 2.04452C9.89649 2.13243 9.8471 2.25166 9.8471 2.37598V3.31348L8.15023 1.69102C7.99144 1.53047 7.75531 1.43848 7.50013 1.43848C7.24583 1.43848 7.01029 1.53047 6.8515 1.69131L0.620055 7.65322C0.437829 7.829 0.414977 8.11816 0.580797 8.30859C0.622437 8.35666 0.673422 8.39575 0.73065 8.42349C0.787878 8.45122 0.850151 8.46703 0.91368 8.46993C0.977209 8.47284 1.04066 8.46278 1.10018 8.44039C1.15971 8.41799 1.21405 8.38371 1.2599 8.33965L7.339 2.53066C7.38262 2.48894 7.44065 2.46565 7.50101 2.46565C7.56137 2.46565 7.6194 2.48894 7.66302 2.53066L13.7427 8.33965C13.8323 8.42553 13.9522 8.4724 14.0763 8.46998C14.2003 8.46757 14.3184 8.41606 14.4045 8.32676C14.5844 8.14043 14.5695 7.83281 14.3823 7.65381Z" fill="url(#paint1_linear_744_7288)"/>
</g>
<defs>
<linearGradient id="paint0_linear_744_7288" x1="1.87183" y1="15.8027" x2="11.3296" y2="14.7262" gradientUnits="userSpaceOnUse">
<stop offset="0.145604" stop-color="#7092E0"/>
<stop offset="1" stop-color="#8BAEF3"/>
</linearGradient>
<linearGradient id="paint1_linear_744_7288" x1="0.468872" y1="9.25175" x2="11.859" y2="6.68085" gradientUnits="userSpaceOnUse">
<stop offset="0.145604" stop-color="#7092E0"/>
<stop offset="1" stop-color="#8BAEF3"/>
</linearGradient>
<clipPath id="clip0_744_7288">
<rect width="15" height="15" fill="white" transform="translate(-0.000244141 0.5)"/>
</clipPath>
</defs>
</svg>
