<svg width="15" height="15" viewBox="0 0 15 15" fill="none" xmlns="http://www.w3.org/2000/svg">
<path d="M5.15625 13.125C5.67402 13.125 6.09375 12.7053 6.09375 12.1875C6.09375 11.6697 5.67402 11.25 5.15625 11.25C4.63848 11.25 4.21875 11.6697 4.21875 12.1875C4.21875 12.7053 4.63848 13.125 5.15625 13.125Z" fill="url(#paint0_linear_2325_26303)"/>
<path d="M11.7188 13.125C12.2365 13.125 12.6563 12.7053 12.6563 12.1875C12.6563 11.6697 12.2365 11.25 11.7188 11.25C11.201 11.25 10.7812 11.6697 10.7812 12.1875C10.7812 12.7053 11.201 13.125 11.7188 13.125Z" fill="url(#paint1_linear_2325_26303)"/>
<path d="M4.91543 8.90637H12.5719L13.6969 3.28137H3.92256L3.67441 1.87512H0.9375V2.81262H2.88809L4.29433 10.7814H12.6562V9.84387H5.08066L4.91543 8.90637Z" fill="url(#paint2_linear_2325_26303)"/>
<defs>
<linearGradient id="paint0_linear_2325_26303" x1="4.21875" y1="13.3333" x2="5.79472" y2="13.1555" gradientUnits="userSpaceOnUse">
<stop offset="0.145604" stop-color="#7092E0"/>
<stop offset="1" stop-color="#8BAEF3"/>
</linearGradient>
<linearGradient id="paint1_linear_2325_26303" x1="10.7812" y1="13.3333" x2="12.3572" y2="13.1555" gradientUnits="userSpaceOnUse">
<stop offset="0.145604" stop-color="#7092E0"/>
<stop offset="1" stop-color="#8BAEF3"/>
</linearGradient>
<linearGradient id="paint2_linear_2325_26303" x1="0.9375" y1="11.771" x2="11.5219" y2="10.0595" gradientUnits="userSpaceOnUse">
<stop offset="0.145604" stop-color="#7092E0"/>
<stop offset="1" stop-color="#8BAEF3"/>
</linearGradient>
</defs>
</svg>
