<svg width="15" height="16" viewBox="0 0 15 16" fill="none" xmlns="http://www.w3.org/2000/svg">
<path d="M2.79795 3.54536H12.1729C12.2825 3.54531 12.3919 3.55226 12.5005 3.56616C12.4637 3.3077 12.3749 3.05937 12.2395 2.83614C12.1041 2.61291 11.9249 2.41942 11.7127 2.26732C11.5005 2.11522 11.2597 2.00766 11.0049 1.95114C10.75 1.89461 10.4863 1.89029 10.2297 1.93843L2.51963 3.25474H2.51084C2.02688 3.34728 1.5965 3.6211 1.30762 4.02026C1.74285 3.71069 2.26385 3.54467 2.79795 3.54536Z" fill="url(#paint0_linear_1461_23564)"/>
<path d="M12.1728 4.24976H2.79785C2.30074 4.2503 1.82414 4.44802 1.47263 4.79953C1.12111 5.15104 0.923394 5.62764 0.922852 6.12476V11.7498C0.923394 12.2469 1.12111 12.7235 1.47263 13.075C1.82414 13.4265 2.30074 13.6242 2.79785 13.6248H12.1728C12.67 13.6242 13.1466 13.4265 13.4981 13.075C13.8496 12.7235 14.0473 12.2469 14.0478 11.7498V6.12476C14.0473 5.62764 13.8496 5.15104 13.4981 4.79953C13.1466 4.44802 12.67 4.2503 12.1728 4.24976ZM10.7812 9.87475C10.5958 9.87475 10.4146 9.81977 10.2604 9.71676C10.1062 9.61374 9.98607 9.46733 9.91511 9.29602C9.84415 9.12471 9.82559 8.93621 9.86176 8.75436C9.89793 8.5725 9.98722 8.40545 10.1183 8.27434C10.2494 8.14323 10.4165 8.05394 10.5983 8.01777C10.7802 7.98159 10.9687 8.00016 11.14 8.07112C11.3113 8.14207 11.4577 8.26224 11.5607 8.41641C11.6638 8.57058 11.7187 8.75183 11.7187 8.93725C11.7187 9.18589 11.62 9.42435 11.4442 9.60017C11.2683 9.77598 11.0299 9.87475 10.7812 9.87475Z" fill="url(#paint1_linear_1461_23564)"/>
<path d="M0.9375 8.10083V5.18579C0.9375 4.55093 1.28906 3.48657 2.50928 3.25601C3.54492 3.06177 4.57031 3.06177 4.57031 3.06177C4.57031 3.06177 5.24414 3.53052 4.6875 3.53052C4.13086 3.53052 4.14551 4.24829 4.6875 4.24829C5.22949 4.24829 4.6875 4.93677 4.6875 4.93677L2.50488 7.41235L0.9375 8.10083Z" fill="url(#paint2_linear_1461_23564)"/>
<defs>
<linearGradient id="paint0_linear_1461_23564" x1="1.30762" y1="4.25526" x2="8.32986" y2="0.0607878" gradientUnits="userSpaceOnUse">
<stop offset="0.145604" stop-color="#7092E0"/>
<stop offset="1" stop-color="#8BAEF3"/>
</linearGradient>
<linearGradient id="paint1_linear_1461_23564" x1="0.922851" y1="14.6664" x2="11.823" y2="12.944" gradientUnits="userSpaceOnUse">
<stop offset="0.145604" stop-color="#7092E0"/>
<stop offset="1" stop-color="#8BAEF3"/>
</linearGradient>
<linearGradient id="paint2_linear_1461_23564" x1="0.9375" y1="8.66072" x2="4.30771" y2="8.35946" gradientUnits="userSpaceOnUse">
<stop offset="0.145604" stop-color="#7092E0"/>
<stop offset="1" stop-color="#8BAEF3"/>
</linearGradient>
</defs>
</svg>
