<svg width="15" height="15" viewBox="0 0 15 15" fill="none" xmlns="http://www.w3.org/2000/svg">
<path d="M14.0525 7.87256L13.115 3.425C12.934 2.45469 12.2367 1.87549 11.25 1.87549H3.75C3.25781 1.87549 2.8418 2.01289 2.5166 2.28389C2.19141 2.55488 1.97842 2.9375 1.88438 3.42324L0.946877 7.87256C0.940543 7.90439 0.937403 7.93678 0.937502 7.96924V11.2505C0.937502 11.7478 1.13505 12.2247 1.48668 12.5763C1.83831 12.9279 2.31522 13.1255 2.8125 13.1255H12.1875C12.6848 13.1255 13.1617 12.9279 13.5133 12.5763C13.865 12.2247 14.0625 11.7478 14.0625 11.2505V7.96924C14.0624 7.93676 14.0591 7.90437 14.0525 7.87256ZM2.80254 3.61279C2.80254 3.60986 2.80254 3.60723 2.80254 3.60459C2.90654 3.06465 3.20713 2.81357 3.74854 2.81357H11.25C11.7952 2.81357 12.0958 3.06406 12.1954 3.60195C12.1954 3.60576 12.1969 3.60957 12.1975 3.61338L12.9864 7.35986C12.99 7.37693 12.9897 7.39458 12.9856 7.41153C12.9815 7.42848 12.9736 7.44429 12.9626 7.45783C12.9516 7.47136 12.9378 7.48226 12.922 7.48974C12.9062 7.49722 12.889 7.50109 12.8716 7.50107H9.375C9.2514 7.50045 9.13261 7.54891 9.04472 7.63581C8.95683 7.72272 8.90702 7.84095 8.90625 7.96455C8.90625 8.33751 8.75809 8.6952 8.49437 8.95892C8.23065 9.22264 7.87296 9.3708 7.5 9.3708C7.12704 9.3708 6.76935 9.22264 6.50563 8.95892C6.24191 8.6952 6.09375 8.33751 6.09375 7.96455C6.09344 7.9033 6.08108 7.84271 6.05735 7.78624C6.03363 7.72977 5.99902 7.67853 5.95549 7.63544C5.91196 7.59234 5.86037 7.55825 5.80367 7.53509C5.74696 7.51194 5.68625 7.50018 5.625 7.50049H2.12842C2.11098 7.50051 2.09375 7.49664 2.078 7.48916C2.06225 7.48167 2.04836 7.47077 2.03736 7.45724C2.02635 7.44371 2.01851 7.42789 2.01439 7.41095C2.01028 7.394 2.01 7.37635 2.01358 7.35928L2.80254 3.61279Z" fill="url(#paint0_linear_716_4978)"/>
<defs>
<linearGradient id="paint0_linear_716_4978" x1="0.9375" y1="14.3755" x2="11.9194" y2="12.9294" gradientUnits="userSpaceOnUse">
<stop offset="0.145604" stop-color="#7092E0"/>
<stop offset="1" stop-color="#8BAEF3"/>
</linearGradient>
</defs>
</svg>
