<svg width="16" height="14" viewBox="0 0 16 14" fill="none" xmlns="http://www.w3.org/2000/svg">
<path d="M0.961698 8.12302C1.02717 8.13365 1.09342 8.13855 1.15971 8.13769H12.4474L12.2013 8.25217C11.9607 8.36604 11.7418 8.52102 11.5544 8.71008L8.3891 11.8754C7.97222 12.2734 7.90217 12.9136 8.22311 13.3923C8.59663 13.9024 9.31295 14.0132 9.82309 13.6396C9.86431 13.6094 9.90348 13.5765 9.94029 13.5411L15.6642 7.81715C16.1116 7.37032 16.112 6.64549 15.6651 6.19816C15.6649 6.19788 15.6645 6.19755 15.6642 6.19727L9.94029 0.473308C9.49261 0.0268745 8.76778 0.0278749 8.32131 0.47556C8.28618 0.510798 8.25337 0.54829 8.22311 0.587786C7.90217 1.06649 7.97222 1.70668 8.3891 2.10464L11.5487 5.27571C11.7167 5.44385 11.9098 5.58484 12.1211 5.69356L12.4646 5.84811H1.22271C0.6379 5.82639 0.12482 6.2349 0.0149555 6.80973C-0.0862522 7.43382 0.337608 8.02178 0.961698 8.12302Z" fill="white"/>
</svg>
