<svg width="20" height="20" viewBox="0 0 20 20" fill="none" xmlns="http://www.w3.org/2000/svg">
<g clip-path="url(#clip0_1713_11613)">
<path d="M6.75 8C6.75 8.66146 6.80729 9.15625 6.92188 9.48438C7.04167 9.80729 7.23177 9.96875 7.49219 9.96875C7.99219 9.96875 8.24219 9.3125 8.24219 8C8.24219 6.69792 7.99219 6.04688 7.49219 6.04688C7.23177 6.04688 7.04167 6.20833 6.92188 6.53125C6.80729 6.84896 6.75 7.33854 6.75 8ZM10.2109 7.98438C10.2109 9.18229 9.97917 10.0833 9.51562 10.6875C9.05208 11.2865 8.3724 11.5859 7.47656 11.5859C6.61719 11.5859 5.95312 11.2786 5.48438 10.6641C5.01562 10.0443 4.78125 9.15104 4.78125 7.98438C4.78125 5.60417 5.67969 4.41406 7.47656 4.41406C8.35677 4.41406 9.03125 4.72396 9.5 5.34375C9.97396 5.95833 10.2109 6.83854 10.2109 7.98438ZM15.5859 4.57812L9.25 16H7.375L13.7109 4.57812H15.5859ZM14.75 12.5625C14.75 13.224 14.8073 13.7188 14.9219 14.0469C15.0417 14.3698 15.2318 14.5312 15.4922 14.5312C15.9922 14.5312 16.2422 13.875 16.2422 12.5625C16.2422 11.2604 15.9922 10.6094 15.4922 10.6094C15.2318 10.6094 15.0417 10.7708 14.9219 11.0938C14.8073 11.4115 14.75 11.901 14.75 12.5625ZM18.2109 12.5469C18.2109 13.7396 17.9792 14.638 17.5156 15.2422C17.0521 15.8411 16.3724 16.1406 15.4766 16.1406C14.6172 16.1406 13.9531 15.8333 13.4844 15.2188C13.0156 14.599 12.7812 13.7083 12.7812 12.5469C12.7812 10.1667 13.6797 8.97656 15.4766 8.97656C16.3568 8.97656 17.0312 9.28646 17.5 9.90625C17.974 10.5208 18.2109 11.401 18.2109 12.5469Z" fill="white"/>
</g>
<defs>
<clipPath id="clip0_1713_11613">
<rect width="20" height="20" fill="white"/>
</clipPath>
</defs>
</svg>
