<svg width="24" height="24" viewBox="0 0 24 24" fill="none" xmlns="http://www.w3.org/2000/svg">
<path d="M19.125 5.24988H4.96875C4.24769 5.24988 3.55617 5.53632 3.0463 6.04618C2.53644 6.55605 2.25 7.24757 2.25 7.96863V15.3749C2.25 16.0711 2.52656 16.7387 3.01884 17.231C3.51113 17.7233 4.17881 17.9999 4.875 17.9999H5.25V19.8599C5.25 20.3611 5.44912 20.8419 5.80357 21.1963C6.15801 21.5507 6.63874 21.7499 7.14 21.7499H16.86C17.3613 21.7499 17.842 21.5507 18.1964 21.1963C18.5509 20.8419 18.75 20.3611 18.75 19.8599V17.9999H19.125C19.8212 17.9999 20.4889 17.7233 20.9811 17.231C21.4734 16.7387 21.75 16.0711 21.75 15.3749V7.87488C21.75 7.17868 21.4734 6.51101 20.9811 6.01872C20.4889 5.52644 19.8212 5.24988 19.125 5.24988ZM17.25 19.8599C17.2496 19.9632 17.2084 20.0622 17.1354 20.1352C17.0623 20.2083 16.9633 20.2495 16.86 20.2499H7.14C7.03668 20.2495 6.93769 20.2083 6.86464 20.1352C6.79158 20.0622 6.75037 19.9632 6.75 19.8599V12.3899C6.75037 12.2866 6.79158 12.1876 6.86464 12.1145C6.93769 12.0415 7.03668 12.0002 7.14 11.9999H16.86C16.9633 12.0002 17.0623 12.0415 17.1354 12.1145C17.2084 12.1876 17.2496 12.2866 17.25 12.3899V19.8599ZM18.4687 9.74613C18.2393 9.76457 18.0097 9.71218 17.811 9.59603C17.6122 9.47988 17.4539 9.30555 17.3573 9.09659C17.2608 8.88762 17.2307 8.65406 17.271 8.42743C17.3114 8.20081 17.4203 7.99202 17.5831 7.82925C17.7459 7.66648 17.9547 7.55755 18.1813 7.51718C18.4079 7.47681 18.6415 7.50693 18.8505 7.60347C19.0594 7.70002 19.2337 7.85835 19.3499 8.05709C19.466 8.25583 19.5184 8.48542 19.5 8.71488C19.4786 8.98124 19.3631 9.23128 19.1741 9.42024C18.9852 9.60919 18.7351 9.72472 18.4687 9.74613Z" fill="white"/>
<path d="M16.1251 2.24963H7.87515C7.24422 2.25057 6.63466 2.47837 6.15774 2.89143C5.68082 3.3045 5.36834 3.8753 5.27734 4.49963H18.723C18.632 3.8753 18.3195 3.3045 17.8426 2.89143C17.3656 2.47837 16.7561 2.25057 16.1251 2.24963Z" fill="white"/>
</svg>
