<svg width="16" height="15" viewBox="0 0 16 15" fill="none" xmlns="http://www.w3.org/2000/svg">
<path d="M2.5024 5C2.5024 5.74414 2.56686 6.30078 2.69576 6.66992C2.83053 7.0332 3.0444 7.21484 3.33736 7.21484C3.89986 7.21484 4.18111 6.47656 4.18111 5C4.18111 3.53516 3.89986 2.80273 3.33736 2.80273C3.0444 2.80273 2.83053 2.98438 2.69576 3.34766C2.56686 3.70508 2.5024 4.25586 2.5024 5ZM6.39596 4.98242C6.39596 6.33008 6.13522 7.34375 5.61373 8.02344C5.09225 8.69727 4.3276 9.03418 3.31979 9.03418C2.35299 9.03418 1.60592 8.68848 1.07858 7.99707C0.551232 7.2998 0.28756 6.29492 0.28756 4.98242C0.28756 2.30469 1.2983 0.96582 3.31979 0.96582C4.31002 0.96582 5.06881 1.31445 5.59615 2.01172C6.12936 2.70312 6.39596 3.69336 6.39596 4.98242ZM12.4428 1.15039L5.3149 14H3.20553L10.3335 1.15039H12.4428ZM11.5024 10.1328C11.5024 10.877 11.5669 11.4336 11.6958 11.8027C11.8305 12.166 12.0444 12.3477 12.3374 12.3477C12.8999 12.3477 13.1811 11.6094 13.1811 10.1328C13.1811 8.66797 12.8999 7.93555 12.3374 7.93555C12.0444 7.93555 11.8305 8.11719 11.6958 8.48047C11.5669 8.83789 11.5024 9.38867 11.5024 10.1328ZM15.396 10.1152C15.396 11.457 15.1352 12.4678 14.6137 13.1475C14.0922 13.8213 13.3276 14.1582 12.3198 14.1582C11.353 14.1582 10.6059 13.8125 10.0786 13.1211C9.55123 12.4238 9.28756 11.4219 9.28756 10.1152C9.28756 7.4375 10.2983 6.09863 12.3198 6.09863C13.31 6.09863 14.0688 6.44727 14.5962 7.14453C15.1294 7.83594 15.396 8.82617 15.396 10.1152Z" fill="white"/>
</svg>
