<svg width="20" height="20" viewBox="0 0 20 20" fill="none" xmlns="http://www.w3.org/2000/svg">
<path d="M12.5 5.70337C12.5 5.70337 13.4516 5.23462 10 5.23462C8.76387 5.23462 7.55549 5.60118 6.52769 6.28793C5.49988 6.97469 4.6988 7.95081 4.22576 9.09285C3.75271 10.2349 3.62894 11.4916 3.87009 12.7039C4.11125 13.9163 4.70651 15.03 5.58058 15.904C6.45466 16.7781 7.56831 17.3734 8.78069 17.6145C9.99307 17.8557 11.2497 17.7319 12.3918 17.2589C13.5338 16.7858 14.5099 15.9847 15.1967 14.9569C15.8834 13.9291 16.25 12.7208 16.25 11.4846" stroke="#2D3748" stroke-width="1.5" stroke-miterlimit="10" stroke-linecap="square"/>
<path d="M10 2.26624L13.125 5.39123L10 8.51623" stroke="#2D3748" stroke-width="1.5" stroke-miterlimit="10" stroke-linecap="square"/>
</svg>
