<svg width="32" height="32" viewBox="0 0 32 32" fill="none" xmlns="http://www.w3.org/2000/svg">
<g clip-path="url(#clip0_1781_13528)">
<path d="M30.3067 30.3067L3.69333 3.69336L2.66667 2.66669L1.69333 1.69336L0 3.38669L5.85333 9.24003L8.8 15.4534L7 18.72C6.78667 19.0934 6.66667 19.5334 6.66667 20C6.66667 21.4667 7.86667 22.6667 9.33333 22.6667H19.28L21.12 24.5067C20.4533 24.9867 20.0133 25.7734 20.0133 26.6667C20.0133 28.1334 21.2 29.3334 22.6667 29.3334C23.56 29.3334 24.3467 28.8934 24.8267 28.2134L28.6133 32L30.3067 30.3067ZM9.89333 20C9.70667 20 9.56 19.8534 9.56 19.6667L9.6 19.5067L10.8 17.3334H13.9467L16.6133 20H9.89333ZM20.7333 17.3334C21.7333 17.3334 22.6133 16.7867 23.0667 15.96L27.84 7.30669C27.9467 7.12003 28 6.89336 28 6.66669C28 5.93336 27.4 5.33336 26.6667 5.33336H8.72L20.7333 17.3334ZM9.33333 24C7.86667 24 6.68 25.2 6.68 26.6667C6.68 28.1334 7.86667 29.3334 9.33333 29.3334C10.8 29.3334 12 28.1334 12 26.6667C12 25.2 10.8 24 9.33333 24Z" fill="white"/>
</g>
<defs>
<clipPath id="clip0_1781_13528">
<rect width="32" height="32" fill="white"/>
</clipPath>
</defs>
</svg>
