<svg width="24" height="24" viewBox="0 0 24 24" fill="none" xmlns="http://www.w3.org/2000/svg">
<path d="M19.8956 10.6534C19.7551 10.6214 19.6269 10.5496 19.5261 10.4466C19.4254 10.3436 19.3564 10.2138 19.3275 10.0726C18.9675 8.35324 18.1814 6.87808 17.0222 5.76011C15.6729 4.46302 13.8716 3.7424 12 3.75105C10.3359 3.75105 8.80125 4.29902 7.56187 5.33543C6.71553 6.05026 6.04239 6.94779 5.59312 7.96043C5.54466 8.06906 5.47106 8.16461 5.37839 8.23919C5.28572 8.31376 5.17664 8.36523 5.06015 8.38933C3.79453 8.65277 2.66625 9.20214 1.81734 9.97699C0.627656 11.0579 0 12.5364 0 14.251C0 15.9385 0.674062 17.4798 1.89797 18.5912C3.07687 19.6618 4.66687 20.251 6.375 20.251H18.5625C20.0798 20.251 21.3858 19.8493 22.3402 19.09C23.4262 18.2251 24 16.9412 24 15.376C24 12.6775 22.0312 11.1301 19.8956 10.6534ZM15.4331 10.2343L10.38 16.2343C10.3108 16.3165 10.2248 16.3828 10.1277 16.4288C10.0307 16.4748 9.92489 16.4995 9.8175 16.501H9.80484C9.69987 16.5011 9.59606 16.479 9.50013 16.4364C9.40421 16.3938 9.3183 16.3315 9.24797 16.2535L7.0964 13.869C6.82594 13.5695 6.82359 13.1035 7.11047 12.819C7.18249 12.7474 7.26829 12.6912 7.36269 12.6538C7.45708 12.6163 7.5581 12.5984 7.65961 12.6012C7.76112 12.604 7.86101 12.6273 7.95323 12.6698C8.04545 12.7123 8.12807 12.7731 8.19609 12.8485L9.78515 14.6101L14.2852 9.26636C14.3486 9.19102 14.4263 9.12891 14.5138 9.08359C14.6012 9.03826 14.6968 9.01061 14.7949 9.00221C14.8931 8.99381 14.9919 9.00482 15.0858 9.03462C15.1797 9.06443 15.2668 9.11243 15.3422 9.17589C15.4175 9.23936 15.4796 9.31704 15.525 9.40451C15.5703 9.49198 15.5979 9.58752 15.6063 9.68567C15.6147 9.78383 15.6037 9.88268 15.5739 9.97657C15.5441 10.0705 15.4961 10.1576 15.4327 10.2329L15.4331 10.2343Z" fill="white"/>
</svg>
