<svg width="15" height="15" viewBox="0 0 15 15" fill="none" xmlns="http://www.w3.org/2000/svg">
<path opacity="0.6" d="M10.7812 1.40625H7.96875V0H7.03125V1.40625H4.21875C3.95953 1.40625 3.75 1.61578 3.75 1.875V7.5H4.6875V2.34375H10.3125V5.625H11.25V1.875C11.25 1.61578 11.0405 1.40625 10.7812 1.40625Z" fill="url(#paint0_linear_3325_23355)"/>
<path d="M14.5312 6.5625H8.4375C8.17828 6.5625 7.96875 6.77203 7.96875 7.03125V14.0625H7.03125V8.90625C7.03125 8.64703 6.82172 8.4375 6.5625 8.4375H0.46875C0.209531 8.4375 0 8.64703 0 8.90625V14.5312C0 14.7905 0.209531 15 0.46875 15H14.5312C14.7905 15 15 14.7905 15 14.5312V7.03125C15 6.77203 14.7905 6.5625 14.5312 6.5625ZM4.6875 13.125H2.34375V12.1875H4.6875V13.125ZM4.6875 11.25H2.34375V10.3125H4.6875V11.25ZM12.6562 13.125H10.3125V12.1875H12.6562V13.125ZM12.6562 11.25H10.3125V10.3125H12.6562V11.25ZM12.6562 9.375H10.3125V8.4375H12.6562V9.375Z" fill="url(#paint1_linear_3325_23355)"/>
<defs>
<linearGradient id="paint0_linear_3325_23355" x1="3.75" y1="8.33333" x2="10.0539" y2="7.62183" gradientUnits="userSpaceOnUse">
<stop offset="0.145604" stop-color="#7092E0"/>
<stop offset="1" stop-color="#8BAEF3"/>
</linearGradient>
<linearGradient id="paint1_linear_3325_23355" x1="-8.86856e-08" y1="15.9375" x2="12.2742" y2="13.4746" gradientUnits="userSpaceOnUse">
<stop offset="0.145604" stop-color="#7092E0"/>
<stop offset="1" stop-color="#8BAEF3"/>
</linearGradient>
</defs>
</svg>
