<svg width="32" height="32" viewBox="0 0 32 32" fill="none" xmlns="http://www.w3.org/2000/svg">
<path d="M9.33398 24C7.86732 24 6.68065 25.2 6.68065 26.6666C6.68065 28.1333 7.86732 29.3333 9.33398 29.3333C10.8007 29.3333 12.0007 28.1333 12.0007 26.6666C12.0007 25.2 10.8007 24 9.33398 24ZM1.33398 2.66663V5.33329H4.00065L8.80065 15.4533L7.00065 18.72C6.78732 19.0933 6.66732 19.5333 6.66732 20C6.66732 21.4666 7.86732 22.6666 9.33398 22.6666H25.334V20H9.89398C9.70732 20 9.56065 19.8533 9.56065 19.6666L9.60065 19.5066L10.8007 17.3333H20.734C21.734 17.3333 22.614 16.7866 23.0673 15.96L27.8406 7.30663C27.9473 7.11996 28.0006 6.89329 28.0006 6.66663C28.0006 5.93329 27.4007 5.33329 26.6673 5.33329H6.94732L5.69398 2.66663H1.33398ZM22.6673 24C21.2006 24 20.014 25.2 20.014 26.6666C20.014 28.1333 21.2006 29.3333 22.6673 29.3333C24.134 29.3333 25.334 28.1333 25.334 26.6666C25.334 25.2 24.134 24 22.6673 24Z" fill="white"/>
</svg>
