<svg width="32" height="32" viewBox="0 0 32 32" fill="none" xmlns="http://www.w3.org/2000/svg">
<rect width="32" height="32" rx="5" fill="#E2E8F0"/>
<path d="M10.5024 14C10.5024 14.7441 10.5669 15.3008 10.6958 15.6699C10.8305 16.0332 11.0444 16.2148 11.3374 16.2148C11.8999 16.2148 12.1811 15.4766 12.1811 14C12.1811 12.5352 11.8999 11.8027 11.3374 11.8027C11.0444 11.8027 10.8305 11.9844 10.6958 12.3477C10.5669 12.7051 10.5024 13.2559 10.5024 14ZM14.396 13.9824C14.396 15.3301 14.1352 16.3438 13.6137 17.0234C13.0922 17.6973 12.3276 18.0342 11.3198 18.0342C10.353 18.0342 9.60592 17.6885 9.07858 16.9971C8.55123 16.2998 8.28756 15.2949 8.28756 13.9824C8.28756 11.3047 9.2983 9.96582 11.3198 9.96582C12.31 9.96582 13.0688 10.3145 13.5962 11.0117C14.1294 11.7031 14.396 12.6934 14.396 13.9824ZM20.4428 10.1504L13.3149 23H11.2055L18.3335 10.1504H20.4428ZM19.5024 19.1328C19.5024 19.877 19.5669 20.4336 19.6958 20.8027C19.8305 21.166 20.0444 21.3477 20.3374 21.3477C20.8999 21.3477 21.1811 20.6094 21.1811 19.1328C21.1811 17.668 20.8999 16.9355 20.3374 16.9355C20.0444 16.9355 19.8305 17.1172 19.6958 17.4805C19.5669 17.8379 19.5024 18.3887 19.5024 19.1328ZM23.396 19.1152C23.396 20.457 23.1352 21.4678 22.6137 22.1475C22.0922 22.8213 21.3276 23.1582 20.3198 23.1582C19.353 23.1582 18.6059 22.8125 18.0786 22.1211C17.5512 21.4238 17.2876 20.4219 17.2876 19.1152C17.2876 16.4375 18.2983 15.0986 20.3198 15.0986C21.31 15.0986 22.0688 15.4473 22.5962 16.1445C23.1294 16.8359 23.396 17.8262 23.396 19.1152Z" fill="#A0AEC0"/>
</svg>
