<svg width="20" height="20" viewBox="0 0 20 20" fill="none" xmlns="http://www.w3.org/2000/svg">
<path d="M18.572 12.8571C18.1775 12.8571 17.8577 13.1769 17.8577 13.5714V17.8571C17.8577 18.2516 17.5379 18.5714 17.1434 18.5714H2.85774C2.46324 18.5714 2.14344 18.2516 2.14344 17.8571V13.5714C2.14344 13.1769 1.82365 12.8571 1.42914 12.8571C1.03464 12.8571 0.714844 13.1769 0.714844 13.5714V17.8571C0.714844 19.0406 1.67423 20 2.8577 20H17.1434C18.3269 20 19.2863 19.0406 19.2863 17.8571V13.5714C19.2863 13.1769 18.9665 12.8571 18.572 12.8571Z" fill="#2D3748"/>
<path d="M5.94007 4.79129C6.21688 5.05861 6.65571 5.05861 6.93248 4.79129L9.28607 2.43917V16.4291C9.28607 16.8236 9.60587 17.1434 10.0004 17.1434C10.3949 17.1434 10.7147 16.8236 10.7147 16.4291V2.43913L13.0668 4.79129C13.3506 5.06534 13.8028 5.05748 14.0768 4.77376C14.3442 4.49694 14.3442 4.05812 14.0768 3.78131L10.5054 0.209892C10.2268 -0.0693893 9.77453 -0.0699768 9.49525 0.208595C9.49483 0.209013 9.49441 0.209433 9.49395 0.209892L5.92253 3.78131C5.64844 4.06507 5.65631 4.51724 5.94007 4.79129Z" fill="#2D3748"/>
</svg>
