<svg width="24" height="24" viewBox="0 0 24 24" fill="none" xmlns="http://www.w3.org/2000/svg">
<path d="M15.5925 3.02682C14.6804 2.04198 13.4063 1.49963 12 1.49963C10.5863 1.49963 9.30801 2.0387 8.40004 3.01745C7.48223 4.00698 7.03505 5.35182 7.14005 6.80401C7.34817 9.66901 9.52833 11.9996 12 11.9996C14.4718 11.9996 16.6482 9.66948 16.8596 6.80494C16.966 5.36588 16.516 4.02385 15.5925 3.02682Z" fill="#2D3748"/>
<path d="M20.25 22.4986H3.75002C3.53405 22.5014 3.32017 22.456 3.12394 22.3658C2.92771 22.2755 2.75407 22.1427 2.61565 21.9769C2.31096 21.6127 2.18815 21.1153 2.27909 20.6123C2.67471 18.4177 3.9094 16.5741 5.85002 15.2798C7.57408 14.1309 9.75799 13.4986 12 13.4986C14.2421 13.4986 16.426 14.1314 18.15 15.2798C20.0906 16.5736 21.3253 18.4172 21.721 20.6119C21.8119 21.1148 21.6891 21.6122 21.3844 21.9764C21.246 22.1423 21.0724 22.2752 20.8762 22.3656C20.6799 22.4559 20.466 22.5013 20.25 22.4986Z" fill="#2D3748"/>
</svg>
