<svg width="22" height="22" viewBox="0 0 22 22" fill="none" xmlns="http://www.w3.org/2000/svg">
<path d="M11.0001 7.25024C10.2584 7.25024 9.53336 7.47018 8.91668 7.88223C8.29999 8.29429 7.81935 8.87996 7.53552 9.56518C7.25169 10.2504 7.17743 11.0044 7.32212 11.7318C7.46681 12.4593 7.82397 13.1274 8.34841 13.6519C8.87286 14.1763 9.54105 14.5335 10.2685 14.6782C10.9959 14.8229 11.7499 14.7486 12.4351 14.4648C13.1204 14.181 13.706 13.7003 14.1181 13.0836C14.5301 12.4669 14.7501 11.7419 14.7501 11.0002C14.7471 10.0066 14.3511 9.05449 13.6484 8.35187C12.9458 7.64925 11.9937 7.25321 11.0001 7.25024ZM19.0963 11.0002C19.0944 11.3506 19.0687 11.7005 19.0194 12.0474L21.3018 13.8343C21.4012 13.9164 21.4682 14.0311 21.4908 14.1581C21.5133 14.285 21.4901 14.4158 21.4251 14.5271L19.266 18.2546C19.2004 18.365 19.0979 18.4486 18.9767 18.4909C18.8555 18.5332 18.7232 18.5313 18.6032 18.4857L15.9196 17.4076C15.3608 17.8379 14.7493 18.195 14.0999 18.4702L13.6987 21.3193C13.6762 21.4469 13.6101 21.5628 13.5117 21.6471C13.4133 21.7314 13.2887 21.7789 13.1591 21.7815H8.841C8.71381 21.779 8.59121 21.7335 8.49322 21.6524C8.39523 21.5712 8.32763 21.4593 8.30147 21.3348L7.90022 18.4857C7.24907 18.2137 6.63711 17.856 6.08053 17.4221L3.39694 18.5002C3.27698 18.5459 3.14476 18.5478 3.02354 18.5056C2.90231 18.4634 2.79984 18.3799 2.73413 18.2696L0.575067 14.5426C0.510078 14.4313 0.486796 14.3004 0.50938 14.1735C0.531964 14.0466 0.598943 13.9319 0.698348 13.8498L2.98069 12.0629C2.93201 11.7107 2.90633 11.3558 2.90382 11.0002C2.90577 10.6498 2.93145 10.3 2.98069 9.95306L0.698348 8.16618C0.598943 8.0841 0.531964 7.96935 0.50938 7.84243C0.486796 7.71551 0.510078 7.5847 0.575067 7.47337L2.73413 3.74587C2.79976 3.63552 2.90221 3.55186 3.02344 3.50959C3.14467 3.46732 3.27693 3.46916 3.39694 3.51477L6.08053 4.5929C6.63934 4.16259 7.25086 3.80548 7.90022 3.53024L8.30147 0.681182C8.32393 0.553564 8.39001 0.437706 8.48841 0.353406C8.58682 0.269105 8.71145 0.221595 8.841 0.218994H13.1591C13.2863 0.22147 13.4089 0.26699 13.5069 0.348124C13.6049 0.429257 13.6725 0.541212 13.6987 0.665713L14.0999 3.51477C14.7519 3.78664 15.3646 4.14433 15.9219 4.57837L18.6032 3.50024C18.7231 3.45458 18.8554 3.45268 18.9766 3.49486C19.0978 3.53704 19.2003 3.62061 19.266 3.73087L21.4251 7.45837C21.4901 7.5697 21.5133 7.70051 21.4908 7.82743C21.4682 7.95435 21.4012 8.0691 21.3018 8.15118L19.0194 9.93806C19.0681 10.2901 19.0938 10.6449 19.0963 11.0002Z" fill="#2D3748"/>
</svg>
