<svg width="20" height="20" viewBox="0 0 20 20" fill="none" xmlns="http://www.w3.org/2000/svg">
<path d="M10.9154 5.41671H9.08203V9.08337H5.41536V10.9167H9.08203V14.5834H10.9154V10.9167H14.582V9.08337H10.9154V5.41671ZM9.9987 0.833374C4.9387 0.833374 0.832031 4.94004 0.832031 10C0.832031 15.06 4.9387 19.1667 9.9987 19.1667C15.0587 19.1667 19.1654 15.06 19.1654 10C19.1654 4.94004 15.0587 0.833374 9.9987 0.833374ZM9.9987 17.3334C5.9562 17.3334 2.66536 14.0425 2.66536 10C2.66536 5.95754 5.9562 2.66671 9.9987 2.66671C14.0412 2.66671 17.332 5.95754 17.332 10C17.332 14.0425 14.0412 17.3334 9.9987 17.3334Z" fill="#A0AEC0"/>
</svg>
