<svg width="20" height="20" viewBox="0 0 20 20" fill="none" xmlns="http://www.w3.org/2000/svg">
<path d="M20 4C20 4.55228 19.5523 5 19 5H1C0.447715 5 0 4.55228 0 4V1C0 0.447715 0.447715 0 1 0H19C19.5523 0 20 0.447715 20 1V4ZM20 8.5C20 7.94772 19.5523 7.5 19 7.5H1C0.447715 7.5 0 7.94772 0 8.5V11.5C0 12.0523 0.447715 12.5 1 12.5H19C19.5523 12.5 20 12.0523 20 11.5V8.5ZM20 16C20 15.4477 19.5523 15 19 15H1C0.447715 15 0 15.4477 0 16V19C0 19.5523 0.447715 20 1 20H19C19.5523 20 20 19.5523 20 19V16Z" fill="#2D3748"/>
</svg>
