<svg width="16" height="18" viewBox="0 0 16 18" fill="none" xmlns="http://www.w3.org/2000/svg">
<path fill-rule="evenodd" clip-rule="evenodd" d="M14.7456 10.6113C14.1943 10.0049 13.588 9.3159 13.588 7.99293V5.73286C13.588 2.6735 10.8869 0 7.8 0C4.71307 0 2.01201 2.70106 2.01201 5.78799V7.99293C2.01201 9.3159 1.40565 10.0049 0.854417 10.6113C0.413428 11.1074 0 11.576 0 12.2926C0 13.8085 3.14205 14.8283 7.8 14.8283C12.458 14.8283 15.6 13.8085 15.6 12.2926C15.6 11.6035 15.1866 11.1074 14.7456 10.6113Z" fill="url(#paint0_linear_1040_6800)"/>
<path fill-rule="evenodd" clip-rule="evenodd" d="M7.80044 15.3793C6.94602 15.3793 6.11917 15.3517 5.375 15.269C5.67818 16.3164 6.64284 17.0606 7.80044 17.0606C8.95804 17.0606 9.9227 16.2888 10.2259 15.269C9.48171 15.3517 8.65486 15.3793 7.80044 15.3793Z" fill="url(#paint1_linear_1040_6800)"/>
<defs>
<linearGradient id="paint0_linear_1040_6800" x1="-7.8" y1="7.41413" x2="7.0092" y2="22.9941" gradientUnits="userSpaceOnUse">
<stop stop-color="#98EC2D"/>
<stop offset="1" stop-color="#17AD37"/>
</linearGradient>
<linearGradient id="paint1_linear_1040_6800" x1="2.94956" y1="16.1648" x2="4.11401" y2="19.3178" gradientUnits="userSpaceOnUse">
<stop stop-color="#98EC2D"/>
<stop offset="1" stop-color="#17AD37"/>
</linearGradient>
</defs>
</svg>
