<svg width="10" height="12" viewBox="0 0 10 12" fill="none" xmlns="http://www.w3.org/2000/svg">
<path d="M5.99324 1L5.99324 8.586L8.28307 6.293C8.5338 6.03304 8.90508 5.92879 9.25423 6.0203C9.60337 6.11182 9.87604 6.38486 9.96743 6.73449C10.0588 7.08412 9.95471 7.45593 9.69511 7.707L5.70065 11.707C5.5133 11.8951 5.25892 12.0008 4.99363 12.0008C4.72834 12.0008 4.47396 11.8951 4.28661 11.707L0.292151 7.707C-0.0977734 7.31598 -0.0973263 6.68247 0.29315 6.292C0.683626 5.90153 1.31627 5.90198 1.70619 6.293L3.99601 8.586L3.99601 1C3.99601 0.447715 4.44311 0 4.99463 0C5.54615 0 5.99324 0.447715 5.99324 1Z" fill="#FD5C70"/>
</svg>
