<svg width="10" height="12" viewBox="0 0 10 12" fill="none" xmlns="http://www.w3.org/2000/svg">
<path d="M5.99324 11.001L5.99324 3.41498L8.28307 5.70798C8.5338 5.96793 8.90508 6.07219 9.25423 5.98067C9.60337 5.88916 9.87604 5.61611 9.96743 5.26648C10.0588 4.91685 9.95471 4.54505 9.69511 4.29398L5.70065 0.293977C5.5133 0.105893 5.25892 0.000188828 4.99363 0.000188828C4.72834 0.000188828 4.47396 0.105893 4.28661 0.293977L0.292151 4.29398C-0.0977734 4.68499 -0.0973263 5.31851 0.29315 5.70898C0.683626 6.09944 1.31627 6.09899 1.70619 5.70798L3.99601 3.41498L3.99601 11.001C3.99601 11.5533 4.44311 12.001 4.99463 12.001C5.54615 12.001 5.99324 11.5533 5.99324 11.001Z" fill="#66D432"/>
</svg>
