<svg width="18" height="18" viewBox="0 0 18 18" fill="none" xmlns="http://www.w3.org/2000/svg">
<path d="M0.898437 9.00134C0.898437 4.52718 4.52583 0.89978 9 0.89978C13.4742 0.89978 17.1016 4.52718 17.1016 9.00134C17.1016 13.4755 13.4742 17.1029 9 17.1029C4.52583 17.1029 0.898437 13.4755 0.898437 9.00134ZM9 10.2748H12.75C12.922 10.2748 13.0869 10.2065 13.2085 10.0849C13.3301 9.96325 13.3984 9.79832 13.3984 9.62634C13.3984 9.45437 13.3301 9.28943 13.2085 9.16783C13.0869 9.04622 12.922 8.9779 12.75 8.9779H9.64844V4.00134C9.64844 3.82937 9.58012 3.66443 9.45851 3.54283C9.33691 3.42122 9.17198 3.35291 9 3.35291C8.82802 3.35291 8.66309 3.42122 8.54148 3.54283C8.41988 3.66443 8.35156 3.82937 8.35156 4.00134V9.62634C8.35156 9.79832 8.41988 9.96325 8.54148 10.0849C8.66309 10.2065 8.82802 10.2748 9 10.2748Z" fill="white" stroke="white" stroke-width="0.046875"/>
</svg>
