<svg width="26" height="23" viewBox="0 0 26 23" fill="none" xmlns="http://www.w3.org/2000/svg">
<path d="M4.09375 7C4.09375 8.24023 4.20117 9.16797 4.41602 9.7832C4.64062 10.3887 4.99707 10.6914 5.48535 10.6914C6.42285 10.6914 6.8916 9.46094 6.8916 7C6.8916 4.55859 6.42285 3.33789 5.48535 3.33789C4.99707 3.33789 4.64062 3.64063 4.41602 4.24609C4.20117 4.8418 4.09375 5.75977 4.09375 7ZM10.583 6.9707C10.583 9.2168 10.1484 10.9062 9.2793 12.0391C8.41016 13.1621 7.13574 13.7236 5.45605 13.7236C3.84473 13.7236 2.59961 13.1475 1.7207 11.9951C0.841797 10.833 0.402344 9.1582 0.402344 6.9707C0.402344 2.50781 2.08691 0.276367 5.45605 0.276367C7.10645 0.276367 8.37109 0.857422 9.25 2.01953C10.1387 3.17188 10.583 4.82227 10.583 6.9707ZM20.6611 0.583984L8.78125 22H5.26562L17.1455 0.583984H20.6611ZM19.0938 15.5547C19.0938 16.7949 19.2012 17.7227 19.416 18.3379C19.6406 18.9434 19.9971 19.2461 20.4854 19.2461C21.4229 19.2461 21.8916 18.0156 21.8916 15.5547C21.8916 13.1133 21.4229 11.8926 20.4854 11.8926C19.9971 11.8926 19.6406 12.1953 19.416 12.8008C19.2012 13.3965 19.0938 14.3145 19.0938 15.5547ZM25.583 15.5254C25.583 17.7617 25.1484 19.4463 24.2793 20.5791C23.4102 21.7021 22.1357 22.2637 20.4561 22.2637C18.8447 22.2637 17.5996 21.6875 16.7207 20.5352C15.8418 19.373 15.4023 17.7031 15.4023 15.5254C15.4023 11.0625 17.0869 8.83105 20.4561 8.83105C22.1064 8.83105 23.3711 9.41211 24.25 10.5742C25.1387 11.7266 25.583 13.377 25.583 15.5254Z" fill="#2D3748"/>
</svg>
