<svg width="36" height="36" viewBox="0 0 36 36" fill="none" xmlns="http://www.w3.org/2000/svg">
<path d="M24 22.6667H8V20.0001H24V22.6667ZM24 17.3334H8V14.6667H24V17.3334ZM24 12.0001H8V9.33342H24V12.0001ZM4 29.3334L6 27.3334L8 29.3334L10 27.3334L12 29.3334L14 27.3334L16 29.3334L18 27.3334L20 29.3334L22 27.3334L24 29.3334L26 27.3334L28 29.3334V2.66675L26 4.66675L24 2.66675L22 4.66675L20 2.66675L18 4.66675L16 2.66675L14 4.66675L12 2.66675L10 4.66675L8 2.66675L6 4.66675L4 2.66675V29.3334Z" fill="#2D3748"/>
<path d="M21 17.6667V22.6667H21.0083L21 22.6751L24.3333 26.0001L21 29.3334L21.0083 29.3417H21V34.3334H31V29.3417H30.9917L31 29.3334L27.6667 26.0001L31 22.6751L30.9917 22.6667H31V17.6667H21Z" fill="#2D3748" stroke="#E2E8F0"/>
</svg>
