<svg width="38" height="38" viewBox="0 0 38 38" fill="none" xmlns="http://www.w3.org/2000/svg">
<path d="M24 22.6667H8V20.0001H24V22.6667ZM24 17.3334H8V14.6667H24V17.3334ZM24 12.0001H8V9.33342H24V12.0001ZM4 29.3334L6 27.3334L8 29.3334L10 27.3334L12 29.3334L14 27.3334L16 29.3334L18 27.3334L20 29.3334L22 27.3334L24 29.3334L26 27.3334L28 29.3334V2.66675L26 4.66675L24 2.66675L22 4.66675L20 2.66675L18 4.66675L16 2.66675L14 4.66675L12 2.66675L10 4.66675L8 2.66675L6 4.66675L4 2.66675V29.3334Z" fill="#2D3748"/>
<circle cx="25.9996" cy="25.9999" r="7.63636" fill="#E2E8F0"/>
<path d="M34.9988 24.62H35.4988V24.12V17V15.7678L34.6402 16.6516L32.2525 19.1092C28.5319 15.7957 22.8518 15.9108 19.2673 19.4544C15.5572 23.1222 15.5916 29.0816 19.2868 32.7451C22.9915 36.4181 29.0054 36.4183 32.7103 32.7456C34.5741 30.903 35.4988 28.2008 35.4988 26.1V25.6H34.9988H32.9988H32.4988V26.1C32.4988 27.9446 31.8736 29.3867 30.6079 30.6338L30.6065 30.6351C28.0715 33.1516 23.9661 33.1516 21.431 30.6351C18.8982 28.1208 18.898 24.0697 21.4306 21.5552C23.8391 19.1736 27.684 19.137 30.2422 21.32L27.8602 23.7716L27.0358 24.62H28.2188H34.9988ZM26.9988 22V21.5H26.4988H24.9988H24.4988V22V27V27.2847L24.7436 27.43L29.0236 29.97L29.4531 30.2249L29.7085 29.7957L30.4285 28.5857L30.6843 28.1558L30.2542 27.9002L26.9988 25.9655V22Z" fill="#2D3748" stroke="#E2E8F0"/>
</svg>
