<svg width="43" height="34" viewBox="0 0 43 34" fill="none" xmlns="http://www.w3.org/2000/svg">
<path d="M24 22.6665H8V19.9998H24V22.6665ZM24 17.3332H8V14.6665H24V17.3332ZM24 11.9998H8V9.33317H24V11.9998ZM4 29.3332L6 27.3332L8 29.3332L10 27.3332L12 29.3332L14 27.3332L16 29.3332L18 27.3332L20 29.3332L22 27.3332L24 29.3332L26 27.3332L28 29.3332V2.6665L26 4.6665L24 2.6665L22 4.6665L20 2.6665L18 4.6665L16 2.6665L14 4.6665L12 2.6665L10 4.6665L8 2.6665L6 4.6665L4 2.6665V29.3332Z" fill="#2D3748"/>
<rect x="17.35" y="18.35" width="24.7" height="14.3" rx="3.25" fill="#2D3748" stroke="#E2E8F0" stroke-width="1.3"/>
<path d="M24.6937 29.2998H22.6574V25.3693C22.6574 24.892 22.6676 24.4553 22.6879 24.0592C22.5626 24.2115 22.4069 24.3706 22.2207 24.5365L21.3777 25.2322L20.3367 23.9525L22.8859 21.8756H24.6937V29.2998ZM32.3516 29.2998H26.9637V27.9795L28.7766 26.1463C29.2945 25.6046 29.6331 25.2356 29.7922 25.0393C29.9513 24.8395 30.0613 24.6686 30.1223 24.5264C30.1866 24.3842 30.2187 24.2352 30.2187 24.0795C30.2187 23.8865 30.1561 23.7342 30.0309 23.6225C29.9056 23.5107 29.7296 23.4549 29.5027 23.4549C29.2691 23.4549 29.0322 23.5226 28.7918 23.658C28.5548 23.79 28.2857 23.9864 27.9844 24.2471L26.8824 22.9572C27.265 22.6153 27.5866 22.3715 27.8473 22.226C28.1079 22.077 28.3906 21.9636 28.6953 21.8857C29.0034 21.8079 29.3487 21.7689 29.7312 21.7689C30.212 21.7689 30.6402 21.8536 31.016 22.0229C31.3952 22.1921 31.688 22.4342 31.8945 22.749C32.1044 23.0605 32.2094 23.4109 32.2094 23.8002C32.2094 24.0913 32.1721 24.3605 32.0977 24.6076C32.0266 24.8548 31.9148 25.0985 31.7625 25.3389C31.6102 25.5758 31.407 25.8264 31.1531 26.0904C30.9026 26.3545 30.366 26.8555 29.5434 27.5936V27.6443H32.3516V29.2998ZM38.8465 23.4854C38.8465 23.9458 38.706 24.3419 38.425 24.6736C38.144 25.002 37.7378 25.2407 37.2063 25.3896V25.4201C38.4453 25.5758 39.0648 26.1615 39.0648 27.1771C39.0648 27.8678 38.7906 28.4111 38.2422 28.8072C37.6971 29.2033 36.9388 29.4014 35.9672 29.4014C35.5677 29.4014 35.197 29.3726 34.8551 29.315C34.5165 29.2575 34.1492 29.1525 33.7531 29.0002V27.3346C34.0781 27.5005 34.4082 27.624 34.7434 27.7053C35.0819 27.7831 35.3934 27.8221 35.6777 27.8221C36.1178 27.8221 36.4378 27.7611 36.6375 27.6393C36.8406 27.514 36.9422 27.3193 36.9422 27.0553C36.9422 26.8521 36.8897 26.6964 36.7848 26.5881C36.6798 26.4764 36.5105 26.3934 36.277 26.3393C36.0434 26.2817 35.7387 26.2529 35.3629 26.2529H34.9059V24.7447H35.373C36.3921 24.7447 36.9016 24.484 36.9016 23.9627C36.9016 23.7663 36.8254 23.6208 36.673 23.526C36.5241 23.4312 36.3227 23.3838 36.0688 23.3838C35.5948 23.3838 35.1039 23.5429 34.5961 23.8611L33.7633 22.5205C34.156 22.2497 34.5572 22.0567 34.9668 21.9416C35.3798 21.8265 35.8521 21.7689 36.3836 21.7689C37.1521 21.7689 37.7547 21.9213 38.1914 22.226C38.6281 22.5307 38.8465 22.9505 38.8465 23.4854Z" fill="#E2E8F0"/>
</svg>
