<svg width="24" height="24" viewBox="0 0 24 24" fill="none" xmlns="http://www.w3.org/2000/svg">
<path d="M24.0003 9.49333H14.9603L18.6137 5.73333C14.9737 2.13333 9.08033 2 5.44033 5.6C1.80033 9.21333 1.80033 15.04 5.44033 18.6533C9.08033 22.2667 14.9737 22.2667 18.6137 18.6533C20.427 16.8667 21.3337 14.7733 21.3337 12.1333H24.0003C24.0003 14.7733 22.827 18.2 20.4803 20.52C15.8003 25.16 8.20033 25.16 3.52033 20.52C-1.14634 15.8933 -1.18634 8.37333 3.49366 3.74667C8.17367 -0.88 15.6803 -0.88 20.3603 3.74667L24.0003 0V9.49333ZM12.667 6.66667V12.3333L17.3337 15.1067L16.3737 16.72L10.667 13.3333V6.66667H12.667Z" fill="#2D3748"/>
</svg>
