<svg width="80" height="100" viewBox="0 0 80 100" fill="none" xmlns="http://www.w3.org/2000/svg">
<path d="M10 0C4.5 0 0.0500011 4.5 0.0500011 10L0 90C0 95.5 4.45 100 9.95 100H70C75.5 100 80 95.5 80 90V30L50 0H10ZM45 35V7.5L72.5 35H45Z" fill="url(#paint0_linear_3344_23300)"/>
<g clip-path="url(#clip0_3344_23300)">
<path d="M52.625 84.5L52.625 80.75L26.375 80.75L26.375 84.5L52.625 84.5ZM52.625 65.75L45.125 65.75L45.125 54.5L33.875 54.5L33.875 65.75L26.375 65.75L39.5 78.875L52.625 65.75Z" fill="black" fill-opacity="0.5"/>
</g>
<defs>
<linearGradient id="paint0_linear_3344_23300" x1="-4.7299e-07" y1="111.111" x2="67.5473" y2="105.012" gradientUnits="userSpaceOnUse">
<stop offset="0.145604" stop-color="#7092E0"/>
<stop offset="1" stop-color="#8BAEF3"/>
</linearGradient>
<clipPath id="clip0_3344_23300">
<rect width="45" height="45" fill="white" transform="translate(62 92) rotate(-180)"/>
</clipPath>
</defs>
</svg>
