<svg width="34" height="34" viewBox="0 0 34 34" fill="none" xmlns="http://www.w3.org/2000/svg">
<path d="M25.5 26.584L27.8329 26.5621C28.3406 26.5599 28.8269 26.3571 29.186 25.9981C29.545 25.6391 29.7477 25.1527 29.75 24.645V9.35428C29.7477 8.84652 29.545 8.36021 29.186 8.00116C28.8269 7.64212 28.3406 7.4394 27.8329 7.43713L25.5 7.45905" stroke="#2D3748" stroke-width="2.125" stroke-linecap="round" stroke-linejoin="round"/>
<path d="M8.5 7.43713L6.05625 7.45905C5.00172 7.45905 4.25 8.32233 4.25 9.3762V24.6676C4.25 25.7214 5.00172 26.584 6.05625 26.584L8.5 26.5621" stroke="#2D3748" stroke-width="2.125" stroke-linecap="round" stroke-linejoin="round"/>
<path d="M25.5 12.7508V21.2508" stroke="#2D3748" stroke-width="2.125" stroke-linecap="round" stroke-linejoin="round"/>
<path d="M21.25 10.6242V23.3742" stroke="#2D3748" stroke-width="2.125" stroke-linecap="round" stroke-linejoin="round"/>
<path d="M17 11.6882V22.3132" stroke="#2D3748" stroke-width="2.125" stroke-linecap="round" stroke-linejoin="round"/>
<path d="M12.75 10.6242V23.3742" stroke="#2D3748" stroke-width="2.125" stroke-linecap="round" stroke-linejoin="round"/>
<path d="M8.5 12.7508V21.2508" stroke="#2D3748" stroke-width="2.125" stroke-linecap="round" stroke-linejoin="round"/>
</svg>
