<svg width="16" height="16" viewBox="0 0 16 16" fill="none" xmlns="http://www.w3.org/2000/svg">
<path d="M11.5 3H4.5C4.36739 3 4.24021 2.94732 4.14645 2.85355C4.05268 2.75979 4 2.63261 4 2.5C4 2.36739 4.05268 2.24021 4.14645 2.14645C4.24021 2.05268 4.36739 2 4.5 2H11.5C11.6326 2 11.7598 2.05268 11.8536 2.14645C11.9473 2.24021 12 2.36739 12 2.5C12 2.63261 11.9473 2.75979 11.8536 2.85355C11.7598 2.94732 11.6326 3 11.5 3Z" fill="#2D3748"/>
<path d="M12.5 4.49976H3.5C3.36739 4.49976 3.24021 4.44708 3.14645 4.35331C3.05268 4.25954 3 4.13236 3 3.99976C3 3.86715 3.05268 3.73997 3.14645 3.6462C3.24021 3.55243 3.36739 3.49976 3.5 3.49976H12.5C12.6326 3.49976 12.7598 3.55243 12.8536 3.6462C12.9473 3.73997 13 3.86715 13 3.99976C13 4.13236 12.9473 4.25954 12.8536 4.35331C12.7598 4.44708 12.6326 4.49976 12.5 4.49976Z" fill="#2D3748"/>
<path d="M13.0978 13.9995H2.90219C2.53043 13.9991 2.17402 13.8512 1.91115 13.5884C1.64828 13.3255 1.50041 12.9691 1.5 12.5973V6.4017C1.50041 6.02994 1.64828 5.67353 1.91115 5.41066C2.17402 5.14779 2.53043 4.99993 2.90219 4.99951H13.0978C13.4696 4.99993 13.826 5.14779 14.0889 5.41066C14.3517 5.67353 14.4996 6.02994 14.5 6.4017V12.5973C14.4996 12.9691 14.3517 13.3255 14.0889 13.5884C13.826 13.8512 13.4696 13.9991 13.0978 13.9995Z" fill="#2D3748"/>
</svg>
