<svg width="24" height="28" viewBox="0 0 24 28" fill="none" xmlns="http://www.w3.org/2000/svg">
<path d="M22.3125 4.625H16.6875V3.21875C16.6875 2.59715 16.4406 2.00101 16.001 1.56147C15.5615 1.12193 14.9653 0.875 14.3437 0.875H9.65625C9.03465 0.875 8.43851 1.12193 7.99897 1.56147C7.55943 2.00101 7.3125 2.59715 7.3125 3.21875V4.625H1.6875C1.43886 4.625 1.2004 4.72377 1.02459 4.89959C0.848772 5.0754 0.75 5.31386 0.75 5.5625C0.75 5.81114 0.848772 6.0496 1.02459 6.22541C1.2004 6.40123 1.43886 6.5 1.6875 6.5H2.68359L3.79687 24.3664C3.88008 25.9396 5.08594 27.125 6.60937 27.125H17.3906C18.9217 27.125 20.1035 25.966 20.2031 24.3711L21.3164 6.5H22.3125C22.5611 6.5 22.7996 6.40123 22.9754 6.22541C23.1512 6.0496 23.25 5.81114 23.25 5.5625C23.25 5.31386 23.1512 5.0754 22.9754 4.89959C22.7996 4.72377 22.5611 4.625 22.3125 4.625ZM8.2834 23.375H8.25C8.00704 23.3751 7.77351 23.281 7.59862 23.1123C7.42373 22.9437 7.32115 22.7137 7.3125 22.4709L6.84375 9.3459C6.83489 9.09726 6.92517 8.85528 7.09472 8.6732C7.26427 8.49112 7.49921 8.38385 7.74785 8.375C7.99649 8.36614 8.23847 8.45642 8.42055 8.62597C8.60262 8.79552 8.70989 9.03046 8.71875 9.2791L9.1875 22.4041C9.19196 22.5272 9.17211 22.65 9.12908 22.7655C9.08605 22.8809 9.02068 22.9868 8.93671 23.077C8.85274 23.1671 8.75182 23.2399 8.63972 23.291C8.52762 23.3421 8.40654 23.3707 8.2834 23.375ZM12.9375 22.4375C12.9375 22.6861 12.8387 22.9246 12.6629 23.1004C12.4871 23.2762 12.2486 23.375 12 23.375C11.7514 23.375 11.5129 23.2762 11.3371 23.1004C11.1613 22.9246 11.0625 22.6861 11.0625 22.4375V9.3125C11.0625 9.06386 11.1613 8.8254 11.3371 8.64958C11.5129 8.47377 11.7514 8.375 12 8.375C12.2486 8.375 12.4871 8.47377 12.6629 8.64958C12.8387 8.8254 12.9375 9.06386 12.9375 9.3125V22.4375ZM14.8125 4.625H9.1875V3.21875C9.18679 3.157 9.19843 3.09572 9.22174 3.03853C9.24505 2.98134 9.27955 2.92939 9.32322 2.88572C9.36689 2.84205 9.41884 2.80755 9.47603 2.78424C9.53322 2.76093 9.5945 2.74929 9.65625 2.75H14.3437C14.4055 2.74929 14.4668 2.76093 14.524 2.78424C14.5812 2.80755 14.6331 2.84205 14.6768 2.88572C14.7204 2.92939 14.7549 2.98134 14.7783 3.03853C14.8016 3.09572 14.8132 3.157 14.8125 3.21875V4.625ZM16.6875 22.4709C16.6788 22.7137 16.5763 22.9437 16.4014 23.1123C16.2265 23.281 15.993 23.3751 15.75 23.375H15.716C15.5929 23.3706 15.4719 23.342 15.3599 23.2908C15.2478 23.2397 15.147 23.1669 15.0631 23.0768C14.9792 22.9866 14.9139 22.8808 14.8709 22.7654C14.8279 22.6499 14.808 22.5272 14.8125 22.4041L15.2812 9.2791C15.2856 9.15598 15.3142 9.03494 15.3654 8.92287C15.4166 8.81081 15.4893 8.70992 15.5795 8.62597C15.6696 8.54201 15.7754 8.47664 15.8908 8.43358C16.0063 8.39052 16.129 8.37061 16.2521 8.375C16.3753 8.37938 16.4963 8.40797 16.6084 8.45914C16.7204 8.51031 16.8213 8.58304 16.9053 8.6732C16.9892 8.76336 17.0546 8.86917 17.0977 8.98459C17.1407 9.10001 17.1606 9.22278 17.1562 9.3459L16.6875 22.4709Z" fill="url(#paint0_linear_970_1366)"/>
<defs>
<linearGradient id="paint0_linear_970_1366" x1="0.75" y1="30.0417" x2="19.725" y2="28.2059" gradientUnits="userSpaceOnUse">
<stop offset="0.145604" stop-color="#7092E0"/>
<stop offset="1" stop-color="#8BAEF3"/>
</linearGradient>
</defs>
</svg>
