<svg width="20" height="20" viewBox="0 0 20 20" fill="none" xmlns="http://www.w3.org/2000/svg">
<path d="M18.572 12.8572C18.1775 12.8572 17.8577 13.177 17.8577 13.5715V17.8572C17.8577 18.2517 17.5379 18.5715 17.1434 18.5715H2.85774C2.46324 18.5715 2.14344 18.2517 2.14344 17.8572V13.5715C2.14344 13.177 1.82365 12.8572 1.42914 12.8572C1.03464 12.8572 0.714844 13.177 0.714844 13.5715V17.8572C0.714844 19.0407 1.67423 20 2.8577 20H17.1434C18.3269 20 19.2863 19.0407 19.2863 17.8572V13.5715C19.2863 13.177 18.9665 12.8572 18.572 12.8572Z" fill="#2D3748"/>
<path d="M14.0599 12.3521C13.7831 12.0848 13.3443 12.0848 13.0675 12.3521L10.7139 14.7043V0.714299C10.7139 0.319796 10.3941 0 9.99963 0C9.60512 0 9.28533 0.319796 9.28533 0.714299V14.7043L6.93316 12.3521C6.6494 12.0781 6.19722 12.086 5.92317 12.3697C5.65582 12.6465 5.65582 13.0853 5.92317 13.3621L9.49459 16.9335C9.77321 17.2128 10.2255 17.2134 10.5047 16.9348C10.5052 16.9344 10.5056 16.934 10.506 16.9335L14.0775 13.3621C14.3516 13.0784 14.3437 12.6262 14.0599 12.3521Z" fill="#2D3748"/>
</svg>
