<svg width="24" height="24" viewBox="0 0 24 24" fill="none" xmlns="http://www.w3.org/2000/svg">
<path d="M19.125 5.24976H4.96875C4.24769 5.24976 3.55617 5.53619 3.0463 6.04606C2.53644 6.55592 2.25 7.24745 2.25 7.9685V15.3748C2.25 16.0709 2.52656 16.7386 3.01884 17.2309C3.51113 17.7232 4.17881 17.9998 4.875 17.9998H5.25V19.8598C5.25 20.361 5.44912 20.8417 5.80357 21.1962C6.15801 21.5506 6.63874 21.7498 7.14 21.7498H16.86C17.3613 21.7498 17.842 21.5506 18.1964 21.1962C18.5509 20.8417 18.75 20.361 18.75 19.8598V17.9998H19.125C19.8212 17.9998 20.4889 17.7232 20.9811 17.2309C21.4734 16.7386 21.75 16.0709 21.75 15.3748V7.87475C21.75 7.17856 21.4734 6.51088 20.9811 6.0186C20.4889 5.52632 19.8212 5.24976 19.125 5.24976ZM17.25 19.8598C17.2496 19.9631 17.2084 20.0621 17.1354 20.1351C17.0623 20.2082 16.9633 20.2494 16.86 20.2498H7.14C7.03668 20.2494 6.93769 20.2082 6.86464 20.1351C6.79158 20.0621 6.75037 19.9631 6.75 19.8598V12.3898C6.75037 12.2864 6.79158 12.1875 6.86464 12.1144C6.93769 12.0413 7.03668 12.0001 7.14 11.9998H16.86C16.9633 12.0001 17.0623 12.0413 17.1354 12.1144C17.2084 12.1875 17.2496 12.2864 17.25 12.3898V19.8598ZM18.4687 9.746C18.2393 9.76445 18.0097 9.71206 17.811 9.59591C17.6122 9.47975 17.4539 9.30543 17.3573 9.09646C17.2608 8.88749 17.2307 8.65394 17.271 8.42731C17.3114 8.20069 17.4203 7.9919 17.5831 7.82913C17.7459 7.66635 17.9547 7.55743 18.1813 7.51706C18.4079 7.47669 18.6415 7.50681 18.8505 7.60335C19.0594 7.6999 19.2337 7.85823 19.3499 8.05697C19.466 8.25571 19.5184 8.4853 19.5 8.71475C19.4786 8.98112 19.3631 9.23116 19.1741 9.42012C18.9852 9.60907 18.7351 9.7246 18.4687 9.746Z" fill="#2D3748"/>
<path d="M16.1251 2.24951H7.87515C7.24422 2.25045 6.63466 2.47824 6.15774 2.89131C5.68082 3.30438 5.36834 3.87517 5.27734 4.49951H18.723C18.632 3.87517 18.3195 3.30438 17.8426 2.89131C17.3656 2.47824 16.7561 2.25045 16.1251 2.24951Z" fill="#2D3748"/>
</svg>
