<svg width="13" height="13" viewBox="0 0 13 13" fill="none" xmlns="http://www.w3.org/2000/svg">
<path d="M11.9733 10.9392L9.21679 8.18261C9.88044 7.29912 10.2387 6.22373 10.2375 5.11875C10.2375 2.29629 7.94121 0 5.11875 0C2.29629 0 0 2.29629 0 5.11875C0 7.94121 2.29629 10.2375 5.11875 10.2375C6.22373 10.2387 7.29912 9.88044 8.18261 9.21679L10.9392 11.9733C11.0787 12.0981 11.2607 12.1646 11.4478 12.1594C11.6349 12.1542 11.8128 12.0775 11.9452 11.9452C12.0775 11.8128 12.1542 11.6349 12.1594 11.4478C12.1646 11.2607 12.0981 11.0787 11.9733 10.9392ZM1.4625 5.11875C1.4625 4.39561 1.67693 3.68871 2.07869 3.08745C2.48044 2.48618 3.05147 2.01755 3.71956 1.74081C4.38765 1.46408 5.1228 1.39168 5.83205 1.53275C6.54129 1.67383 7.19277 2.02205 7.70411 2.53339C8.21544 3.04473 8.56367 3.69621 8.70474 4.40545C8.84582 5.11469 8.77341 5.84984 8.49668 6.51793C8.21995 7.18603 7.75132 7.75705 7.15005 8.15881C6.54878 8.56056 5.84189 8.775 5.11875 8.775C4.14941 8.77383 3.2201 8.38825 2.53467 7.70282C1.84925 7.01739 1.46366 6.08809 1.4625 5.11875Z" fill="#2D3748"/>
</svg>
